<svg width="500" height="391" viewBox="0 0 500 391" fill="none" xmlns="http://www.w3.org/2000/svg">
<g clip-path="url(#clip0_18172_6554)">
<path d="M500 0H0V500H500V0Z" fill="#2AAA0B"/>
<path d="M48.5801 282.55C48.5801 274.25 138.72 267.55 249.92 267.55C361.12 267.55 451.26 274.28 451.26 282.55C451.26 290.82 361.13 297.55 249.92 297.55C138.71 297.55 48.5801 290.84 48.5801 282.55Z" fill="#2FD406"/>
<path d="M453.449 211.27V246.904H436.595V273.87H397.59V246.904H321.025V211.27L374.717 105.331H416.13L362.438 211.27H397.59V175.154H436.595V211.27H453.449Z" fill="#2A2A2A"/>
<mask id="mask0_18172_6554" style="mask-type:luminance" maskUnits="userSpaceOnUse" x="162" y="116" width="201" height="169">
<path d="M362.32 116.1H162.07V284.28H362.32V116.1Z" fill="white"/>
</mask>
<g mask="url(#mask0_18172_6554)">
<path d="M329.45 280.82C366.593 243.677 366.593 183.457 329.45 146.314C292.307 109.171 232.087 109.171 194.944 146.314C157.802 183.457 157.802 243.677 194.944 280.82C232.087 317.963 292.307 317.963 329.45 280.82Z" fill="#5D5D5D"/>
<path d="M183.101 213.57C183.101 197.926 187.74 182.632 196.431 169.624C205.123 156.616 217.477 146.478 231.93 140.491C246.384 134.504 262.288 132.938 277.632 135.99C292.976 139.042 307.07 146.576 318.133 157.638C329.195 168.7 336.729 182.794 339.781 198.138C342.833 213.482 341.266 229.387 335.279 243.84C329.293 258.294 319.154 270.648 306.146 279.339C293.138 288.031 277.845 292.67 262.201 292.67C251.813 292.671 241.526 290.626 231.929 286.652C222.331 282.677 213.611 276.85 206.266 269.505C198.92 262.16 193.094 253.439 189.119 243.842C185.144 234.244 183.099 223.958 183.101 213.57Z" fill="#4A4A4A"/>
<path d="M262.2 281.12C248.842 281.122 235.783 277.163 224.674 269.742C213.566 262.322 204.908 251.775 199.794 239.433C194.681 227.092 193.342 213.512 195.947 200.41C198.552 187.308 204.984 175.272 214.429 165.826C223.874 156.379 235.909 149.945 249.01 147.339C262.112 144.732 275.693 146.069 288.035 151.18C300.376 156.292 310.925 164.949 318.347 176.056C325.769 187.163 329.73 200.221 329.73 213.58C329.709 231.485 322.588 248.65 309.929 261.311C297.269 273.972 280.105 281.096 262.2 281.12ZM262.2 147.23C249.075 147.228 236.243 151.119 225.329 158.41C214.415 165.701 205.908 176.064 200.884 188.191C195.86 200.317 194.545 213.66 197.105 226.534C199.665 239.407 205.986 251.232 215.267 260.514C224.548 269.795 236.373 276.115 249.247 278.675C262.12 281.236 275.464 279.921 287.59 274.897C299.716 269.873 310.08 261.366 317.371 250.451C324.662 239.537 328.552 226.706 328.55 213.58C328.532 195.988 321.536 179.121 309.097 166.68C296.658 154.24 279.793 147.241 262.2 147.22V147.23Z" fill="#767676"/>
<path d="M262.201 280.34C248.995 280.34 236.086 276.424 225.105 269.087C214.125 261.751 205.567 251.322 200.513 239.122C195.46 226.921 194.137 213.496 196.714 200.544C199.29 187.592 205.649 175.695 214.987 166.357C224.325 157.019 236.222 150.659 249.175 148.083C262.127 145.507 275.552 146.829 287.752 151.883C299.953 156.936 310.381 165.494 317.718 176.475C325.055 187.455 328.971 200.364 328.971 213.57C328.952 231.273 321.912 248.245 309.394 260.763C296.876 273.281 279.904 280.322 262.201 280.34ZM262.201 147.4C249.111 147.4 236.315 151.282 225.432 158.554C214.549 165.827 206.066 176.163 201.057 188.256C196.049 200.35 194.739 213.657 197.293 226.495C199.847 239.333 206.151 251.125 215.408 260.38C224.664 269.635 236.457 275.937 249.296 278.49C262.134 281.042 275.441 279.73 287.534 274.72C299.626 269.709 309.961 261.225 317.232 250.34C324.503 239.456 328.383 226.66 328.381 213.57C328.36 196.025 321.38 179.206 308.973 166.801C296.566 154.396 279.745 147.419 262.201 147.4Z" fill="#3F3F3F"/>
<path d="M262.2 298.68C245.367 298.68 228.912 293.688 214.915 284.336C200.919 274.984 190.01 261.692 183.569 246.14C177.127 230.588 175.441 213.476 178.725 196.966C182.009 180.456 190.115 165.291 202.018 153.388C213.921 141.485 229.086 133.379 245.596 130.095C262.105 126.811 279.218 128.497 294.77 134.939C310.322 141.38 323.614 152.289 332.966 166.285C342.318 180.282 347.31 196.737 347.31 213.57C347.283 236.134 338.308 257.767 322.353 273.723C306.397 289.678 284.764 298.654 262.2 298.68ZM262.2 129.68C245.6 129.68 229.372 134.603 215.57 143.825C201.767 153.048 191.01 166.157 184.658 181.494C178.306 196.83 176.644 213.707 179.883 229.988C183.123 246.269 191.117 261.224 202.856 272.961C214.595 284.698 229.551 292.691 245.832 295.929C262.114 299.166 278.989 297.502 294.325 291.148C309.661 284.794 322.769 274.035 331.99 260.232C341.211 246.428 346.132 230.2 346.13 213.6C346.117 191.343 337.27 170 321.534 154.26C305.797 138.52 284.457 129.669 262.2 129.65V129.68Z" fill="#767676"/>
<path d="M262.201 297.79C245.543 297.79 229.26 292.851 215.41 283.597C201.56 274.342 190.766 261.189 184.391 245.8C178.017 230.411 176.349 213.477 179.599 197.14C182.848 180.803 190.87 165.796 202.648 154.018C214.426 142.239 229.433 134.218 245.77 130.968C262.107 127.719 279.041 129.387 294.43 135.761C309.819 142.135 322.973 152.93 332.227 166.78C341.481 180.63 346.421 196.913 346.421 213.57C346.397 235.899 337.516 257.307 321.727 273.096C305.938 288.886 284.53 297.766 262.201 297.79ZM262.201 129.95C245.66 129.95 229.49 134.855 215.737 144.045C201.984 153.235 191.265 166.297 184.936 181.579C178.606 196.861 176.95 213.676 180.178 229.899C183.406 246.122 191.372 261.024 203.069 272.719C214.766 284.414 229.668 292.379 245.891 295.604C262.115 298.83 278.93 297.173 294.211 290.841C309.492 284.51 322.553 273.789 331.741 260.035C340.929 246.281 345.832 230.111 345.831 213.57C345.804 191.399 336.984 170.144 321.306 154.468C305.628 138.791 284.372 129.974 262.201 129.95Z" fill="#3F3F3F"/>
<path d="M312.271 283.91L311.021 295.12L312.701 294.12L313.051 283.45L312.271 283.91Z" fill="#4A4A4A"/>
<path d="M322.92 274.36L323.68 286.06C325.11 284.85 326.51 283.58 327.88 282.27L325.45 271.83L322.92 274.36Z" fill="#4A4A4A"/>
<path d="M328.771 268.55L330.47 279.74C330.93 279.27 331.381 278.8 331.831 278.32L329.401 267.92L328.771 268.55Z" fill="#4A4A4A"/>
<path d="M336.62 256.56L340.39 267.67C341.45 266.12 342.48 264.54 343.46 262.91L338.41 253.46L336.62 256.56Z" fill="#4A4A4A"/>
<path d="M340.73 249.44L345.27 259.82L346.21 258.09L341.21 248.67L340.73 249.44Z" fill="#4A4A4A"/>
<path d="M345.21 235.83L351.72 245.59C352.347 243.817 352.93 242.02 353.47 240.2L346.14 232.38L345.21 235.83Z" fill="#4A4A4A"/>
<path d="M347.34 227.9L354.41 236.74C354.57 236.1 354.72 235.47 354.87 234.83L347.57 227.03L347.34 227.9Z" fill="#4A4A4A"/>
<path d="M348.141 213.59L356.961 221.33C357.111 219.45 357.211 217.57 357.251 215.67L348.141 210.01V213.59Z" fill="#4A4A4A"/>
<path d="M348.141 205.37L357.261 212.08C357.261 211.43 357.261 210.77 357.261 210.08L348.191 204.44L348.141 205.37Z" fill="#4A4A4A"/>
<path d="M345.22 191.34L355.74 196.54C355.4 194.687 355.003 192.837 354.55 190.99L344.29 187.88L345.22 191.34Z" fill="#4A4A4A"/>
<path d="M343.09 183.41L353.64 187.53C353.46 186.9 353.27 186.27 353.08 185.64L342.86 182.54L343.09 183.41Z" fill="#4A4A4A"/>
<path d="M336.63 170.61L348.14 172.9C347.326 171.213 346.467 169.547 345.56 167.9L334.84 167.55L336.63 170.61Z" fill="#4A4A4A"/>
<path d="M332.52 163.5L343.78 164.75C343.44 164.19 343.1 163.63 342.78 163.07L332.11 162.73L332.52 163.5Z" fill="#4A4A4A"/>
<path d="M322.98 152.81L334.68 152.05C333.47 150.62 332.2 149.22 330.89 147.84L320.45 150.28L322.98 152.81Z" fill="#4A4A4A"/>
<path d="M317.17 147L328.36 145.3C327.89 144.84 327.42 144.39 326.93 143.94L316.54 146.37L317.17 147Z" fill="#4A4A4A"/>
<path d="M305.18 139.12L316.29 135.35C314.74 134.29 313.16 133.26 311.53 132.28L302.08 137.33L305.18 139.12Z" fill="#4A4A4A"/>
<path d="M298.06 135.04L308.44 130.5L306.71 129.56L297.29 134.56L298.06 135.04Z" fill="#4A4A4A"/>
<path d="M284.45 130.56L294.21 124.05C292.437 123.423 290.64 122.843 288.82 122.31L280.99 129.63L284.45 130.56Z" fill="#4A4A4A"/>
<path d="M276.51 128.43L285.36 121.36L283.45 120.9L275.65 128.2L276.51 128.43Z" fill="#4A4A4A"/>
<path d="M262.21 127.63L269.95 118.81C268.07 118.66 266.19 118.56 264.29 118.52L258.63 127.63H262.21Z" fill="#4A4A4A"/>
<path d="M253.991 127.63L260.701 118.51L258.701 118.56L253.061 127.63H253.991Z" fill="#4A4A4A"/>
<path d="M239.921 130.55L245.121 120.03C243.267 120.37 241.421 120.767 239.581 121.22L236.471 131.48L239.921 130.55Z" fill="#4A4A4A"/>
<path d="M232.03 132.68L236.15 122.12L234.26 122.68L231.16 132.9L232.03 132.68Z" fill="#4A4A4A"/>
<path d="M219.23 139.12L221.53 127.61C219.83 128.42 218.15 129.27 216.48 130.19L216.13 140.91L219.23 139.12Z" fill="#4A4A4A"/>
<path d="M212.12 143.24L213.37 131.99L211.69 132.99L211.34 143.66L212.12 143.24Z" fill="#4A4A4A"/>
<path d="M201.431 152.79L200.671 141.09C199.241 142.3 197.841 143.57 196.471 144.88L198.921 155.32L201.431 152.79Z" fill="#4A4A4A"/>
<path d="M195.621 158.6L193.921 147.41C193.461 147.88 193.011 148.35 192.561 148.84L194.991 159.23L195.621 158.6Z" fill="#4A4A4A"/>
<path d="M187.771 170.59L184.011 159.48C182.941 161.03 181.911 162.61 180.931 164.24L185.981 173.69L187.771 170.59Z" fill="#4A4A4A"/>
<path d="M183.661 177.71L179.121 167.33L178.181 169.06L183.181 178.48L183.661 177.71Z" fill="#4A4A4A"/>
<path d="M179.181 191.32L172.671 181.56C172.041 183.33 171.461 185.12 170.931 186.95L178.251 194.78L179.181 191.32Z" fill="#4A4A4A"/>
<path d="M177.051 199.25L169.98 190.41C169.82 191.05 169.671 191.68 169.521 192.33L176.82 200.12L177.051 199.25Z" fill="#4A4A4A"/>
<path d="M176.251 213.56L167.431 205.83C167.281 207.7 167.181 209.58 167.141 211.48L176.251 217.14V213.56Z" fill="#4A4A4A"/>
<path d="M176.25 221.78L167.13 215.06C167.13 215.72 167.13 216.38 167.13 217.06L176.2 222.7L176.25 221.78Z" fill="#4A4A4A"/>
<path d="M179.17 235.81L168.66 230.61C168.99 232.46 169.39 234.31 169.84 236.15L180.1 239.27L179.17 235.81Z" fill="#4A4A4A"/>
<path d="M181.301 243.74L170.761 239.62C170.931 240.25 171.121 240.88 171.311 241.51L181.531 244.61L181.301 243.74Z" fill="#4A4A4A"/>
<path d="M187.76 256.54L176.25 254.24C177.05 255.94 177.92 257.62 178.83 259.29L189.54 259.64L187.76 256.54Z" fill="#4A4A4A"/>
<path d="M191.92 263.65L180.66 262.4C181 262.96 181.34 263.52 181.66 264.08L192.33 264.43L191.92 263.65Z" fill="#4A4A4A"/>
<path d="M201.41 274.34L189.71 275.1C190.92 276.53 192.19 277.93 193.5 279.3L203.92 276.87L201.41 274.34Z" fill="#4A4A4A"/>
<path d="M207.22 280.12L196.03 281.82C196.5 282.28 196.98 282.73 197.46 283.18L207.85 280.75L207.22 280.12Z" fill="#4A4A4A"/>
<path d="M197.2 213.57C197.2 200.714 201.012 188.147 208.155 177.458C215.297 166.769 225.449 158.438 237.326 153.518C249.203 148.598 262.272 147.311 274.881 149.819C287.49 152.327 299.072 158.518 308.162 167.608C317.253 176.699 323.443 188.28 325.951 200.889C328.459 213.498 327.172 226.567 322.252 238.445C317.333 250.322 309.001 260.473 298.312 267.616C287.623 274.758 275.056 278.57 262.2 278.57C244.961 278.57 228.428 271.722 216.238 259.532C204.048 247.342 197.2 230.809 197.2 213.57Z" fill="#2A2A2A"/>
<path d="M262.07 140.12C261.07 142.12 260.26 143.88 259.95 144.7C260.42 143.96 261.33 142.26 262.33 140.25C263.33 138.24 264.13 136.49 264.44 135.68C263.98 136.45 263.07 138.12 262.07 140.12Z" fill="#5D5D5D"/>
<path d="M257.46 140.3C256.59 142.37 255.89 144.17 255.63 145.01C256.05 144.24 256.86 142.49 257.73 140.42C258.6 138.35 259.29 136.56 259.55 135.72C259.13 136.49 258.33 138.24 257.46 140.3Z" fill="#5D5D5D"/>
<path d="M252.921 140.75C252.181 142.87 251.601 144.75 251.391 145.55C251.761 144.76 252.461 142.96 253.191 140.85C253.921 138.74 254.511 136.85 254.721 136.04C254.301 136.83 253.611 138.63 252.921 140.75Z" fill="#5D5D5D"/>
<path d="M248.31 141.48C247.71 143.64 247.25 145.48 247.09 146.37C247.41 145.55 247.99 143.72 248.59 141.56C249.19 139.4 249.66 137.56 249.81 136.67C249.5 137.48 248.92 139.32 248.31 141.48Z" fill="#5D5D5D"/>
<path d="M243.81 142.49C243.34 144.69 243 146.58 242.9 147.49C243.17 146.66 243.63 144.79 244.1 142.59C244.57 140.39 244.91 138.51 245.01 137.59C244.74 138.43 244.28 140.3 243.81 142.49Z" fill="#5D5D5D"/>
<path d="M239.39 143.79C239.06 146.01 238.83 147.92 238.79 148.79C239.01 147.94 239.35 146.04 239.68 143.79C240.01 141.54 240.23 139.66 240.27 138.79C240.06 139.67 239.72 141.57 239.39 143.79Z" fill="#5D5D5D"/>
<path d="M235.05 145.36C234.86 147.6 234.76 149.51 234.77 150.36C234.93 149.5 235.15 147.59 235.34 145.36C235.53 143.13 235.64 141.21 235.62 140.36C235.46 141.21 235.24 143.12 235.05 145.36Z" fill="#5D5D5D"/>
<path d="M230.82 147.2C230.77 149.44 230.82 151.37 230.82 152.2C230.93 151.33 231.04 149.41 231.08 147.2C231.12 144.99 231.08 143.03 231.08 142.15C230.97 143.03 230.92 144.96 230.82 147.2Z" fill="#5D5D5D"/>
<path d="M226.71 149.3C226.81 151.54 226.95 153.46 227.06 154.3C227.12 153.43 227.06 151.5 227.06 149.3C227.06 147.1 226.83 145.14 226.71 144.3C226.6 145.12 226.62 147.06 226.71 149.3Z" fill="#5D5D5D"/>
<path d="M222.75 151.66C222.98 153.89 223.24 155.79 223.42 156.66C223.42 155.79 223.27 153.87 223.04 151.66C222.81 149.45 222.55 147.52 222.37 146.66C222.38 147.5 222.52 149.42 222.75 151.66Z" fill="#5D5D5D"/>
<path d="M218.92 154.26C219.29 156.47 219.67 158.36 219.92 159.2C219.86 158.33 219.6 156.42 219.23 154.2C218.86 151.98 218.48 150.1 218.23 149.2C218.31 150.12 218.57 152.04 218.92 154.26Z" fill="#5D5D5D"/>
<path d="M215.3 157.12C215.81 159.3 216.3 161.12 216.59 161.99C216.48 161.12 216.1 159.24 215.59 157.05C215.08 154.86 214.59 153.05 214.3 152.18C214.41 153.02 214.79 154.91 215.3 157.12Z" fill="#5D5D5D"/>
<path d="M211.85 160.12C212.5 162.26 213.1 164.12 213.44 164.9C213.27 164.04 212.77 162.18 212.13 160.03C211.49 157.88 210.87 156.03 210.54 155.25C210.7 156.12 211.2 158 211.85 160.12Z" fill="#5D5D5D"/>
<path d="M208.59 163.41C209.37 165.51 210.1 167.3 210.48 168.09C210.26 167.24 209.65 165.41 208.87 163.31C208.09 161.21 207.36 159.43 206.98 158.64C207.2 159.49 207.81 161.31 208.59 163.41Z" fill="#5D5D5D"/>
<path d="M205.551 166.88C206.461 168.93 207.301 170.66 207.731 171.43C207.461 170.59 206.731 168.81 205.821 166.76C204.911 164.71 204.071 162.97 203.641 162.21C203.921 163.05 204.641 164.83 205.551 166.88Z" fill="#5D5D5D"/>
<path d="M202.73 170.53C203.73 172.53 204.73 174.19 205.19 174.93C204.87 174.12 204.03 172.38 202.99 170.39C201.95 168.4 200.99 166.73 200.53 165.99C200.85 166.81 201.69 168.54 202.73 170.53Z" fill="#5D5D5D"/>
<path d="M200.15 174.35C201.3 176.27 202.35 177.88 202.88 178.59C202.5 177.79 201.56 176.12 200.4 174.19C199.24 172.26 198.19 170.66 197.66 169.96C198.04 170.75 198.98 172.43 200.15 174.35Z" fill="#5D5D5D"/>
<path d="M197.8 178.32C199.08 180.16 200.23 181.71 200.8 182.38C200.37 181.61 199.32 180 198.05 178.15C196.78 176.3 195.62 174.76 195.05 174.09C195.48 174.86 196.53 176.48 197.8 178.32Z" fill="#5D5D5D"/>
<path d="M195.721 182.44C197.111 184.19 198.351 185.67 198.961 186.3C198.491 185.56 197.341 184.01 195.961 182.25C194.581 180.49 193.321 179.02 192.721 178.39C193.181 179.12 194.331 180.68 195.721 182.44Z" fill="#5D5D5D"/>
<path d="M193.92 186.67C195.42 188.34 196.74 189.73 197.39 190.33C196.87 189.62 195.63 188.14 194.14 186.47C192.65 184.8 191.3 183.47 190.65 182.82C191.15 183.53 192.4 185 193.92 186.67Z" fill="#5D5D5D"/>
<path d="M192.34 191.01C193.94 192.58 195.34 193.89 196.04 194.44C195.48 193.77 194.14 192.38 192.55 190.8C190.96 189.22 189.55 187.93 188.84 187.38C189.41 188.05 190.74 189.45 192.34 191.01Z" fill="#5D5D5D"/>
<path d="M191.06 195.45C192.76 196.91 194.25 198.13 194.97 198.64C194.37 198 192.97 196.64 191.26 195.22C189.55 193.8 188.06 192.54 187.34 192.03C187.92 192.67 189.37 193.98 191.06 195.45Z" fill="#5D5D5D"/>
<path d="M190.061 199.95C191.851 201.3 193.421 202.42 194.171 202.89C193.531 202.28 192.021 201.07 190.241 199.71C188.461 198.35 186.891 197.24 186.141 196.78C186.781 197.38 188.281 198.59 190.061 199.95Z" fill="#5D5D5D"/>
<path d="M189.35 204.51C191.22 205.74 192.85 206.76 193.63 207.18C192.95 206.62 191.38 205.5 189.52 204.26C187.66 203.02 186.01 202 185.24 201.59C185.92 202.12 187.49 203.27 189.35 204.51Z" fill="#5D5D5D"/>
<path d="M188.92 209.12C190.86 210.24 192.55 211.12 193.36 211.52C192.64 211 191 209.99 189.07 208.86C187.14 207.73 185.42 206.86 184.63 206.47C185.35 206.96 186.99 207.98 188.92 209.12Z" fill="#5D5D5D"/>
<path d="M188.79 213.71C190.79 214.71 192.55 215.51 193.37 215.83C192.63 215.35 190.93 214.45 188.92 213.44C186.91 212.43 185.16 211.64 184.34 211.33C185.09 211.8 186.79 212.71 188.79 213.71Z" fill="#5D5D5D"/>
<path d="M188.92 218.32C190.99 219.19 192.79 219.88 193.63 220.14C192.86 219.72 191.1 218.92 189.04 218.04C186.98 217.16 185.17 216.48 184.34 216.22C185.13 216.64 186.92 217.45 188.92 218.32Z" fill="#5D5D5D"/>
<path d="M189.381 222.91C191.501 223.65 193.381 224.23 194.201 224.43C193.401 224.06 191.601 223.37 189.491 222.63C187.381 221.89 185.491 221.31 184.681 221.11C185.471 221.48 187.281 222.17 189.381 222.91Z" fill="#5D5D5D"/>
<path d="M190.12 227.46C192.28 228.07 194.12 228.53 195.01 228.68C194.19 228.36 192.35 227.79 190.2 227.18C188.05 226.57 186.2 226.11 185.3 225.96C186.12 226.28 187.97 226.86 190.12 227.46Z" fill="#5D5D5D"/>
<path d="M191.13 231.96C193.32 232.43 195.22 232.77 196.13 232.87C195.3 232.6 193.42 232.14 191.23 231.67C189.04 231.2 187.14 230.86 186.23 230.76C187.07 231.03 188.92 231.5 191.13 231.96Z" fill="#5D5D5D"/>
<path d="M192.431 236.39C194.641 236.71 196.561 236.94 197.431 236.99C196.571 236.76 194.671 236.43 192.431 236.09C190.191 235.75 188.301 235.55 187.431 235.5C188.311 235.72 190.221 236.06 192.431 236.39Z" fill="#5D5D5D"/>
<path d="M194 240.73C196.23 240.91 198.16 241.02 199 241C198.14 240.84 196.22 240.62 194 240.43C191.78 240.24 189.83 240.14 188.95 240.15C189.85 240.31 191.77 240.54 194 240.73Z" fill="#5D5D5D"/>
<path d="M195.84 244.95C198.08 245 200.01 244.95 200.84 244.95C199.97 244.84 198.04 244.74 195.84 244.68C193.64 244.62 191.67 244.68 190.84 244.68C191.67 244.8 193.6 244.91 195.84 244.95Z" fill="#5D5D5D"/>
<path d="M197.92 249.06C200.16 248.96 202.08 248.83 202.92 248.71C202.04 248.65 200.12 248.71 197.92 248.76C195.72 248.81 193.76 249 192.92 249.12C193.77 249.17 195.71 249.12 197.92 249.06Z" fill="#5D5D5D"/>
<path d="M200.29 253.03C202.52 252.79 204.43 252.53 205.29 252.36C204.41 252.36 202.48 252.5 200.29 252.73C198.1 252.96 196.16 253.23 195.29 253.4C196.14 253.4 198.07 253.26 200.29 253.03Z" fill="#5D5D5D"/>
<path d="M202.921 256.84C205.131 256.46 207.021 256.08 207.871 255.84C207.001 255.9 205.081 256.16 202.871 256.53C200.661 256.9 198.781 257.29 197.931 257.53C198.781 257.46 200.691 257.21 202.921 256.84Z" fill="#5D5D5D"/>
<path d="M205.73 260.48C207.91 259.96 209.73 259.48 210.61 259.18C209.73 259.3 207.84 259.68 205.66 260.18C203.48 260.68 201.66 261.18 200.78 261.47C201.66 261.36 203.55 260.98 205.73 260.48Z" fill="#5D5D5D"/>
<path d="M208.78 263.93C210.93 263.28 212.78 262.67 213.57 262.33C212.71 262.5 210.84 263 208.7 263.64C206.56 264.28 204.7 264.91 203.91 265.24C204.78 265.12 206.65 264.57 208.78 263.93Z" fill="#5D5D5D"/>
<path d="M212.051 267.18C214.151 266.4 215.94 265.68 216.73 265.29C215.88 265.51 214.051 266.13 211.951 266.9C209.851 267.67 208.061 268.42 207.271 268.79C208.121 268.57 209.921 267.96 212.051 267.18Z" fill="#5D5D5D"/>
<path d="M215.521 270.23C217.521 269.31 219.301 268.48 220.071 268.04C219.231 268.32 217.451 269.04 215.401 269.95C213.351 270.86 211.611 271.71 210.851 272.13C211.681 271.86 213.481 271.12 215.521 270.23Z" fill="#5D5D5D"/>
<path d="M219.16 273.05C221.16 272.05 222.83 271.05 223.57 270.58C222.75 270.91 221.02 271.75 219.03 272.78C217.04 273.81 215.37 274.78 214.63 275.24C215.44 274.92 217.19 274.12 219.16 273.05Z" fill="#5D5D5D"/>
<path d="M244.08 284.71C245.55 283.02 246.77 281.52 247.27 280.8C246.63 281.41 245.33 282.8 243.86 284.52C242.39 286.24 241.18 287.71 240.67 288.43C241.31 287.83 242.63 286.4 244.08 284.71Z" fill="#5D5D5D"/>
<path d="M248.59 285.71C249.94 283.93 251.06 282.36 251.52 281.61C250.92 282.25 249.71 283.75 248.35 285.53C246.99 287.31 245.88 288.89 245.42 289.63C246.01 288.99 247.24 287.49 248.59 285.71Z" fill="#5D5D5D"/>
<path d="M253.141 286.43C254.391 284.56 255.401 282.92 255.821 282.14C255.261 282.82 254.141 284.39 252.891 286.26C251.641 288.13 250.641 289.77 250.221 290.53C250.781 289.86 251.921 288.28 253.141 286.43Z" fill="#5D5D5D"/>
<path d="M257.74 286.85C258.86 284.91 259.74 283.21 260.13 282.41C259.62 283.12 258.6 284.76 257.48 286.7C256.36 288.64 255.48 290.34 255.08 291.14C255.59 290.42 256.62 288.78 257.74 286.85Z" fill="#5D5D5D"/>
<path d="M262.35 286.99C263.35 284.99 264.15 283.23 264.46 282.4C263.99 283.15 263.08 284.84 262.08 286.85C261.08 288.86 260.29 290.61 259.96 291.43C260.43 290.69 261.35 288.98 262.35 286.99Z" fill="#5D5D5D"/>
<path d="M266.92 286.83C267.79 284.76 268.48 282.97 268.74 282.13C268.32 282.9 267.52 284.65 266.64 286.71C265.76 288.77 265.09 290.58 264.82 291.42C265.28 290.64 266.09 288.89 266.92 286.83Z" fill="#5D5D5D"/>
<path d="M271.55 286.39C272.29 284.27 272.87 282.44 273.07 281.58C272.7 282.38 272.01 284.17 271.26 286.29C270.51 288.41 269.96 290.29 269.74 291.1C270.11 290.3 270.81 288.5 271.55 286.39Z" fill="#5D5D5D"/>
<path d="M276.101 285.66C276.701 283.5 277.171 281.66 277.321 280.76C277.001 281.58 276.421 283.42 275.811 285.58C275.201 287.74 274.761 289.58 274.601 290.47C274.921 289.65 275.501 287.81 276.101 285.66Z" fill="#5D5D5D"/>
<path d="M309.12 270.05C308.6 267.87 308.12 266 307.82 265.17C307.94 266.04 308.32 267.93 308.82 270.11C309.32 272.29 309.82 274.16 310.11 274.99C310 274.12 309.62 272.22 309.12 270.05Z" fill="#5D5D5D"/>
<path d="M312.571 266.99C311.921 264.84 311.311 262.99 310.971 262.2C311.141 263.07 311.641 264.93 312.281 267.08C312.921 269.23 313.551 271.08 313.871 271.86C313.711 271 313.211 269.12 312.571 266.99Z" fill="#5D5D5D"/>
<path d="M315.831 263.72C315.041 261.62 314.321 259.84 313.931 259.04C314.151 259.9 314.771 261.72 315.541 263.83C316.311 265.94 317.061 267.71 317.431 268.5C317.211 267.65 316.601 265.82 315.831 263.72Z" fill="#5D5D5D"/>
<path d="M318.92 260.26C318 258.21 317.17 256.48 316.73 255.71C317.01 256.55 317.73 258.33 318.64 260.38C319.55 262.43 320.4 264.16 320.82 264.93C320.5 264.12 319.77 262.3 318.92 260.26Z" fill="#5D5D5D"/>
<path d="M321.691 256.61C320.691 254.61 319.691 252.94 319.221 252.2C319.551 253.03 320.391 254.76 321.421 256.74C322.451 258.72 323.421 260.41 323.881 261.15C323.551 260.33 322.721 258.58 321.691 256.61Z" fill="#5D5D5D"/>
<path d="M324.28 252.79C323.11 250.87 322.07 249.25 321.53 248.55C321.91 249.35 322.86 251.02 324.01 252.94C325.16 254.86 326.24 256.47 326.75 257.18C326.37 256.39 325.42 254.7 324.28 252.79Z" fill="#5D5D5D"/>
<path d="M326.62 248.81C325.33 246.97 324.19 245.42 323.62 244.75C324.05 245.53 325.1 247.14 326.37 248.98C327.64 250.82 328.81 252.37 329.37 253.04C328.92 252.27 327.92 250.64 326.62 248.81Z" fill="#5D5D5D"/>
<path d="M328.7 244.7C327.3 242.94 326.07 241.47 325.45 240.84C325.93 241.58 327.08 243.12 328.45 244.84C329.82 246.56 331.1 248.06 331.69 248.7C331.23 248 330.08 246.45 328.7 244.7Z" fill="#5D5D5D"/>
<path d="M330.52 240.46C329.02 238.8 327.69 237.46 327.03 236.81C327.56 237.52 328.8 238.99 330.29 240.66C331.78 242.33 333.14 243.66 333.78 244.32C333.26 243.6 332.01 242.12 330.52 240.46Z" fill="#5D5D5D"/>
<path d="M332.08 236.12C330.47 234.55 329.08 233.25 328.37 232.7C328.94 233.37 330.27 234.76 331.86 236.34C333.45 237.92 334.86 239.2 335.57 239.76C335 239.12 333.67 237.68 332.08 236.12Z" fill="#5D5D5D"/>
<path d="M333.36 231.69C331.66 230.22 330.17 229.01 329.44 228.51C330.05 229.14 331.44 230.44 333.15 231.92C334.86 233.4 336.36 234.58 337.06 235.1C336.46 234.46 335.04 233.12 333.36 231.69Z" fill="#5D5D5D"/>
<path d="M334.36 227.18C332.57 225.83 331 224.71 330.24 224.25C330.89 224.85 332.39 226.06 334.16 227.42C335.93 228.78 337.53 229.89 338.27 230.36C337.63 229.76 336.12 228.54 334.36 227.18Z" fill="#5D5D5D"/>
<path d="M335.07 222.63C333.2 221.39 331.56 220.37 330.78 219.96C331.46 220.52 333.03 221.63 334.89 222.88C336.75 224.13 338.41 225.13 339.17 225.55C338.5 224.99 336.92 223.87 335.07 222.63Z" fill="#5D5D5D"/>
<path d="M335.49 218.03C333.55 216.91 331.86 216.03 331.04 215.64C331.77 216.16 333.4 217.17 335.33 218.3C337.26 219.43 338.98 220.3 339.77 220.69C339.06 220.18 337.42 219.12 335.49 218.03Z" fill="#5D5D5D"/>
<path d="M335.63 213.42C333.63 212.42 331.87 211.62 331.04 211.32C331.79 211.78 333.49 212.69 335.49 213.7C337.49 214.71 339.25 215.48 340.07 215.81C339.32 215.34 337.62 214.42 335.63 213.42Z" fill="#5D5D5D"/>
<path d="M335.47 208.81C333.41 207.95 331.61 207.25 330.76 207C331.54 207.42 333.29 208.22 335.35 209.1C337.41 209.98 339.22 210.64 340.06 210.92C339.29 210.49 337.53 209.68 335.47 208.81Z" fill="#5D5D5D"/>
<path d="M335.03 204.22C332.91 203.49 331.08 202.91 330.21 202.71C331.02 203.08 332.81 203.76 334.92 204.51C337.03 205.26 338.92 205.81 339.74 206.03C338.92 205.66 337.13 204.96 335.03 204.22Z" fill="#5D5D5D"/>
<path d="M334.3 199.67C332.14 199.07 330.3 198.61 329.4 198.46C330.22 198.78 332.06 199.35 334.21 199.96C336.36 200.57 338.21 201.01 339.11 201.18C338.29 200.86 336.44 200.28 334.3 199.67Z" fill="#5D5D5D"/>
<path d="M333.29 195.17C331.09 194.7 329.2 194.36 328.29 194.27C329.14 194.53 331.01 194.99 333.19 195.47C335.37 195.95 337.29 196.26 338.19 196.38C337.34 196.12 335.46 195.64 333.29 195.17Z" fill="#5D5D5D"/>
<path d="M331.99 190.74C329.77 190.42 327.86 190.19 326.99 190.16C327.85 190.37 329.75 190.71 331.99 191.05C334.23 191.39 336.12 191.58 336.99 191.64C336.1 191.42 334.19 191.12 331.99 190.74Z" fill="#5D5D5D"/>
<path d="M330.42 186.4C328.19 186.22 326.26 186.12 325.37 186.14C326.25 186.29 328.16 186.51 330.37 186.71C332.58 186.91 334.53 186.99 335.37 186.99C334.56 186.83 332.64 186.6 330.42 186.4Z" fill="#5D5D5D"/>
<path d="M328.58 182.17C326.34 182.17 324.41 182.17 323.53 182.17C324.41 182.28 326.33 182.37 328.53 182.43C330.73 182.49 332.71 182.43 333.58 182.43C332.74 182.34 330.81 182.23 328.58 182.17Z" fill="#5D5D5D"/>
<path d="M326.471 178.12C324.241 178.22 322.321 178.35 321.471 178.49C322.351 178.49 324.281 178.49 326.471 178.43C328.661 178.37 330.641 178.18 331.471 178.07C330.641 177.97 328.701 177.99 326.471 178.12Z" fill="#5D5D5D"/>
<path d="M324.12 174.12C321.89 174.36 319.98 174.62 319.12 174.8C320 174.8 321.92 174.65 324.12 174.43C326.32 174.21 328.26 173.92 329.12 173.76C328.27 173.74 326.34 173.88 324.12 174.12Z" fill="#5D5D5D"/>
<path d="M321.521 170.29C319.311 170.67 317.421 171.05 316.521 171.29C317.401 171.22 319.311 170.96 321.521 170.6C323.731 170.24 325.621 169.83 326.521 169.6C325.641 169.67 323.721 169.93 321.521 170.29Z" fill="#5D5D5D"/>
<path d="M318.691 166.65C316.511 167.17 314.691 167.65 313.811 167.96C314.681 167.84 316.571 167.46 318.751 166.96C320.931 166.46 322.751 165.96 323.631 165.67C322.761 165.78 320.861 166.12 318.691 166.65Z" fill="#5D5D5D"/>
<path d="M315.63 163.2C313.49 163.85 311.63 164.46 310.84 164.81C311.71 164.64 313.57 164.13 315.71 163.5C317.85 162.87 319.71 162.22 320.5 161.9C319.64 162.12 317.76 162.56 315.63 163.2Z" fill="#5D5D5D"/>
<path d="M312.36 159.94C310.26 160.73 308.48 161.46 307.69 161.85C308.54 161.62 310.36 161 312.46 160.24C314.56 159.48 316.35 158.71 317.14 158.35C316.29 158.56 314.45 159.18 312.36 159.94Z" fill="#5D5D5D"/>
<path d="M308.92 156.9C306.92 157.82 305.14 158.65 304.38 159.1C305.22 158.82 307 158.1 309.05 157.19C311.1 156.28 312.83 155.42 313.6 155.01C312.73 155.27 310.92 156 308.92 156.9Z" fill="#5D5D5D"/>
<path d="M305.24 154.12C303.24 155.12 301.58 156.12 300.84 156.6C301.66 156.27 303.39 155.42 305.38 154.4C307.37 153.38 309.04 152.4 309.79 151.94C308.97 152.21 307.22 153.06 305.24 154.12Z" fill="#5D5D5D"/>
<path d="M301.42 151.5C299.51 152.66 297.89 153.71 297.19 154.25C297.98 153.86 299.66 152.91 301.58 151.77C303.5 150.63 305.11 149.54 305.82 149.03C305.02 149.4 303.34 150.35 301.42 151.5Z" fill="#5D5D5D"/>
<path d="M297.451 149.12C295.611 150.4 294.061 151.54 293.391 152.12C294.161 151.68 295.781 150.63 297.621 149.37C299.461 148.11 301.001 146.92 301.681 146.37C300.921 146.84 299.291 147.89 297.451 149.12Z" fill="#5D5D5D"/>
<path d="M293.33 147.12C291.58 148.52 290.11 149.76 289.48 150.38C290.22 149.9 291.76 148.75 293.53 147.38C295.3 146.01 296.75 144.73 297.39 144.13C296.64 144.54 295.09 145.69 293.33 147.12Z" fill="#5D5D5D"/>
<path d="M289.09 145.25C287.44 146.75 286.04 148.08 285.45 148.74C286.16 148.21 287.63 146.97 289.3 145.48C290.97 143.99 292.35 142.63 292.96 142C292.24 142.51 290.76 143.76 289.09 145.25Z" fill="#5D5D5D"/>
<path d="M284.75 143.69C283.19 145.3 281.88 146.69 281.34 147.41C282.01 146.84 283.4 145.5 284.98 143.92C286.56 142.34 287.84 140.92 288.4 140.21C287.72 140.77 286.32 142.12 284.75 143.69Z" fill="#5D5D5D"/>
<path d="M280.321 142.42C278.861 144.12 277.651 145.61 277.141 146.34C277.781 145.72 279.081 144.34 280.561 142.63C282.041 140.92 283.221 139.42 283.751 138.71C283.101 139.31 281.791 140.74 280.321 142.42Z" fill="#5D5D5D"/>
<path d="M275.82 141.42C274.47 143.21 273.35 144.78 272.9 145.54C273.49 144.88 274.7 143.38 276.07 141.61C277.44 139.84 278.52 138.24 279 137.5C278.39 138.12 277.17 139.65 275.82 141.42Z" fill="#5D5D5D"/>
<path d="M271.261 140.71C270.031 142.58 269.011 144.21 268.601 145C269.161 144.31 270.271 142.74 271.521 140.88C272.771 139.02 273.761 137.37 274.191 136.6C273.631 137.27 272.501 138.86 271.261 140.71Z" fill="#5D5D5D"/>
<path d="M266.67 140.28C265.56 142.22 264.67 143.92 264.28 144.73C264.79 144 265.8 142.37 266.94 140.44C268.08 138.51 268.94 136.79 269.34 136C268.81 136.71 267.79 138.36 266.67 140.28Z" fill="#5D5D5D"/>
<path d="M262.2 278.57C275.056 278.57 287.623 274.758 298.312 267.616C309.001 260.473 317.333 250.322 322.252 238.445C327.172 226.567 328.459 213.498 325.951 200.889C323.443 188.28 317.253 176.699 308.162 167.608C299.072 158.518 287.49 152.327 274.881 149.819C262.272 147.311 249.203 148.598 237.326 153.518C225.449 158.438 215.297 166.769 208.155 177.458C201.012 188.147 197.2 200.714 197.2 213.57C197.2 230.809 204.048 247.342 216.238 259.532C228.428 271.722 244.961 278.57 262.2 278.57ZM323.76 211.2C323.76 211.2 324.14 222.46 320.84 232.63C317.54 242.8 310.61 251.68 310.61 251.68C307.27 255.61 302.31 255.46 299.61 251.34L289.03 235.34L283.7 227.27C280.61 222.58 282.38 217.13 287.64 215.16L296.7 211.76L314.7 205.02C319.27 203.27 323.37 206.06 323.76 211.2ZM278.97 154.29C278.97 154.29 289.79 157.41 298.44 163.69C307.09 169.97 313.44 179.3 313.44 179.3C316.14 183.7 314.44 188.37 309.71 189.68L291.21 194.79L281.88 197.37C276.47 198.87 271.83 195.5 271.58 189.88L271.15 180.21C270.9 174.6 270.51 165.97 270.3 161.04C270.09 156.11 273.92 153.12 278.97 154.29ZM268.57 238.23L274.57 245.8L286.57 260.8C289.64 264.65 288.26 269.42 283.49 271.38C283.49 271.38 272.9 275.22 262.21 275.22C251.52 275.22 240.92 271.39 240.92 271.39C236.15 269.39 234.76 264.66 237.84 260.81C240.92 256.96 246.3 250.19 249.84 245.81L255.84 238.24C259.33 233.84 265.07 233.84 268.57 238.23ZM211 179.3C211 179.3 217.31 169.98 226 163.69C234.69 157.4 245.47 154.28 245.47 154.28C250.47 153.07 254.41 156.11 254.19 161.04C253.97 165.97 253.58 174.6 253.33 180.21L252.9 189.88C252.65 195.49 248.01 198.88 242.59 197.37L233.27 194.79L214.77 189.68C209.97 188.37 208.29 183.69 211 179.3ZM209.75 205L227.75 211.74L236.81 215.13C242.07 217.13 243.81 222.56 240.75 227.25L235.41 235.32L224.84 251.32C222.12 255.44 217.16 255.6 213.84 251.66C213.84 251.66 206.92 242.78 203.62 232.66C200.32 222.54 200.69 211.23 200.69 211.23C201.03 206.06 205.13 203.26 209.75 205Z" fill="#E0E0E0"/>
<path d="M258.51 198.31C258.512 197.581 258.73 196.868 259.137 196.263C259.543 195.657 260.12 195.186 260.795 194.908C261.469 194.63 262.211 194.559 262.926 194.702C263.641 194.846 264.297 195.198 264.813 195.714C265.328 196.231 265.678 196.888 265.82 197.604C265.961 198.319 265.888 199.061 265.608 199.735C265.328 200.408 264.855 200.984 264.249 201.389C263.642 201.794 262.929 202.01 262.2 202.01C261.714 202.01 261.234 201.914 260.785 201.728C260.337 201.542 259.93 201.27 259.587 200.926C259.244 200.582 258.973 200.174 258.788 199.725C258.603 199.276 258.508 198.796 258.51 198.31Z" fill="#4A4A4A"/>
<path d="M260.11 198.31C260.11 197.897 260.233 197.493 260.463 197.149C260.692 196.805 261.019 196.537 261.401 196.379C261.782 196.221 262.203 196.179 262.608 196.26C263.014 196.341 263.386 196.54 263.678 196.832C263.97 197.124 264.17 197.497 264.25 197.902C264.331 198.308 264.289 198.728 264.131 199.11C263.973 199.492 263.705 199.818 263.361 200.048C263.018 200.277 262.614 200.4 262.2 200.4C261.646 200.4 261.114 200.18 260.723 199.788C260.331 199.396 260.11 198.864 260.11 198.31Z" fill="#BABABA"/>
<path d="M261.04 198.31C261.04 198.081 261.108 197.856 261.236 197.666C261.363 197.475 261.544 197.326 261.756 197.238C261.968 197.151 262.201 197.128 262.426 197.172C262.651 197.217 262.858 197.328 263.02 197.49C263.183 197.652 263.293 197.859 263.338 198.084C263.383 198.309 263.36 198.542 263.272 198.754C263.184 198.966 263.035 199.147 262.845 199.275C262.654 199.402 262.429 199.47 262.2 199.47C262.048 199.47 261.897 199.44 261.756 199.382C261.615 199.324 261.488 199.238 261.38 199.13C261.272 199.023 261.187 198.895 261.128 198.754C261.07 198.613 261.04 198.462 261.04 198.31Z" fill="#E0E0E0"/>
<path d="M246.551 212.37C245.857 212.145 245.245 211.718 244.793 211.145C244.341 210.572 244.07 209.878 244.012 209.15C243.955 208.423 244.115 207.695 244.471 207.058C244.828 206.421 245.365 205.904 246.015 205.573C246.666 205.242 247.399 205.111 248.124 205.196C248.849 205.282 249.532 205.58 250.087 206.054C250.642 206.528 251.044 207.156 251.242 207.858C251.44 208.561 251.426 209.306 251.201 210C251.051 210.461 250.812 210.888 250.497 211.257C250.183 211.625 249.798 211.928 249.367 212.148C248.935 212.368 248.464 212.501 247.981 212.539C247.498 212.577 247.012 212.52 246.551 212.37Z" fill="#4A4A4A"/>
<path d="M247.041 210.84C246.647 210.713 246.3 210.472 246.044 210.147C245.787 209.822 245.633 209.429 245.6 209.017C245.568 208.605 245.658 208.192 245.86 207.831C246.062 207.47 246.366 207.177 246.735 206.989C247.103 206.801 247.519 206.727 247.93 206.776C248.341 206.825 248.728 206.994 249.042 207.263C249.357 207.532 249.584 207.888 249.696 208.286C249.808 208.684 249.799 209.107 249.671 209.5C249.497 210.024 249.123 210.459 248.631 210.71C248.138 210.961 247.567 211.008 247.041 210.84Z" fill="#BABABA"/>
<path d="M247.331 209.96C247.174 209.924 247.027 209.855 246.898 209.759C246.77 209.663 246.662 209.541 246.583 209.402C246.504 209.262 246.455 209.107 246.439 208.948C246.422 208.788 246.439 208.626 246.489 208.474C246.538 208.321 246.619 208.18 246.725 208.06C246.832 207.94 246.962 207.843 247.108 207.776C247.254 207.709 247.412 207.673 247.573 207.67C247.733 207.667 247.893 207.698 248.041 207.76C248.197 207.796 248.344 207.865 248.473 207.961C248.602 208.057 248.709 208.179 248.788 208.318C248.867 208.458 248.917 208.613 248.933 208.772C248.949 208.932 248.932 209.093 248.883 209.246C248.833 209.399 248.753 209.54 248.646 209.66C248.54 209.78 248.409 209.877 248.263 209.944C248.118 210.011 247.959 210.047 247.799 210.05C247.638 210.053 247.479 210.022 247.331 209.96Z" fill="#E0E0E0"/>
<path d="M256.211 228.12C255.782 228.707 255.188 229.154 254.505 229.404C253.822 229.654 253.08 229.696 252.374 229.525C251.667 229.354 251.026 228.977 250.533 228.442C250.041 227.908 249.717 227.239 249.604 226.52C249.491 225.802 249.594 225.066 249.899 224.406C250.204 223.745 250.697 223.19 251.317 222.81C251.938 222.431 252.656 222.243 253.383 222.271C254.11 222.3 254.812 222.543 255.401 222.97C255.793 223.254 256.125 223.613 256.378 224.026C256.631 224.439 256.8 224.898 256.875 225.377C256.95 225.855 256.93 226.344 256.816 226.815C256.702 227.285 256.496 227.729 256.211 228.12Z" fill="#4A4A4A"/>
<path d="M254.92 227.12C254.678 227.456 254.341 227.712 253.953 227.856C253.565 228 253.143 228.026 252.741 227.93C252.338 227.833 251.973 227.62 251.692 227.316C251.411 227.012 251.226 226.632 251.161 226.223C251.097 225.814 251.155 225.395 251.329 225.02C251.502 224.644 251.784 224.328 252.137 224.113C252.491 223.897 252.9 223.791 253.313 223.808C253.727 223.826 254.126 223.966 254.46 224.21C254.906 224.536 255.204 225.025 255.29 225.57C255.376 226.116 255.243 226.673 254.92 227.12Z" fill="#BABABA"/>
<path d="M254.17 226.6C254.036 226.786 253.849 226.928 253.634 227.008C253.419 227.087 253.185 227.102 252.962 227.048C252.739 226.995 252.536 226.877 252.38 226.709C252.224 226.541 252.121 226.33 252.085 226.104C252.049 225.877 252.08 225.645 252.176 225.437C252.271 225.228 252.427 225.053 252.622 224.932C252.817 224.812 253.044 224.752 253.273 224.761C253.503 224.769 253.724 224.846 253.91 224.98C254.034 225.069 254.138 225.182 254.218 225.312C254.298 225.442 254.352 225.586 254.376 225.736C254.4 225.887 254.394 226.04 254.359 226.189C254.324 226.337 254.259 226.477 254.17 226.6Z" fill="#E0E0E0"/>
<path d="M274.15 223.75C274.579 224.341 274.823 225.045 274.852 225.775C274.88 226.504 274.692 227.226 274.31 227.848C273.928 228.47 273.37 228.965 272.707 229.271C272.044 229.576 271.305 229.677 270.584 229.563C269.863 229.448 269.193 229.122 268.657 228.626C268.122 228.13 267.745 227.486 267.576 226.776C267.406 226.066 267.451 225.321 267.704 224.637C267.958 223.952 268.409 223.358 269 222.93C269.392 222.645 269.836 222.44 270.307 222.326C270.778 222.213 271.267 222.194 271.745 222.27C272.224 222.347 272.683 222.517 273.095 222.77C273.508 223.024 273.867 223.357 274.15 223.75Z" fill="#4A4A4A"/>
<path d="M272.85 224.69C273.091 225.023 273.229 225.42 273.244 225.831C273.26 226.242 273.154 226.648 272.939 226.998C272.724 227.349 272.41 227.628 272.037 227.8C271.663 227.972 271.247 228.029 270.841 227.965C270.435 227.901 270.057 227.718 269.755 227.439C269.453 227.16 269.24 226.798 269.144 226.398C269.048 225.999 269.072 225.579 269.213 225.194C269.355 224.808 269.608 224.472 269.94 224.23C270.161 224.069 270.412 223.953 270.678 223.889C270.944 223.824 271.22 223.813 271.491 223.856C271.761 223.899 272.02 223.994 272.254 224.138C272.487 224.281 272.69 224.468 272.85 224.69Z" fill="#BABABA"/>
<path d="M272.1 225.24C272.191 225.362 272.257 225.5 272.293 225.647C272.33 225.795 272.337 225.948 272.313 226.098C272.29 226.248 272.237 226.392 272.158 226.521C272.078 226.65 271.973 226.762 271.85 226.85C271.602 227.032 271.292 227.107 270.988 227.06C270.684 227.013 270.412 226.848 270.23 226.6C270.125 226.479 270.047 226.337 270 226.184C269.953 226.03 269.938 225.869 269.957 225.71C269.975 225.55 270.027 225.397 270.108 225.258C270.189 225.12 270.297 225 270.427 224.905C270.557 224.811 270.704 224.745 270.861 224.71C271.018 224.676 271.18 224.675 271.337 224.706C271.494 224.738 271.643 224.801 271.774 224.893C271.906 224.985 272.017 225.103 272.1 225.24Z" fill="#E0E0E0"/>
<path d="M275.57 205.35C276.264 205.125 277.01 205.11 277.712 205.308C278.414 205.507 279.042 205.909 279.516 206.464C279.99 207.019 280.288 207.702 280.374 208.427C280.46 209.151 280.329 209.885 279.997 210.535C279.666 211.185 279.149 211.723 278.512 212.079C277.875 212.436 277.147 212.596 276.42 212.538C275.692 212.481 274.998 212.209 274.425 211.757C273.852 211.306 273.426 210.694 273.2 210C273.05 209.539 272.993 209.053 273.031 208.57C273.069 208.087 273.202 207.616 273.422 207.184C273.642 206.752 273.945 206.368 274.314 206.053C274.682 205.739 275.109 205.5 275.57 205.35Z" fill="#4A4A4A"/>
<path d="M276.06 206.87C276.453 206.742 276.876 206.733 277.274 206.845C277.672 206.957 278.028 207.184 278.297 207.498C278.566 207.813 278.735 208.2 278.784 208.61C278.833 209.021 278.759 209.437 278.571 209.806C278.383 210.174 278.09 210.479 277.729 210.681C277.368 210.883 276.955 210.973 276.543 210.94C276.131 210.908 275.738 210.753 275.413 210.497C275.088 210.24 274.847 209.894 274.72 209.5C274.552 208.974 274.599 208.402 274.85 207.91C275.101 207.418 275.536 207.044 276.06 206.87Z" fill="#BABABA"/>
<path d="M276.35 207.76C276.497 207.701 276.655 207.672 276.814 207.676C276.973 207.681 277.129 207.717 277.273 207.784C277.417 207.851 277.546 207.947 277.651 208.066C277.757 208.185 277.836 208.324 277.886 208.475C277.935 208.626 277.953 208.786 277.938 208.944C277.924 209.102 277.877 209.255 277.8 209.395C277.723 209.534 277.619 209.656 277.494 209.753C277.368 209.85 277.224 209.921 277.07 209.96C276.775 210.055 276.455 210.029 276.18 209.888C275.905 209.748 275.696 209.504 275.6 209.21C275.509 208.918 275.536 208.602 275.677 208.331C275.817 208.059 276.059 207.854 276.35 207.76Z" fill="#E0E0E0"/>
<path d="M271.17 213.56C271.17 215.34 270.642 217.08 269.653 218.56C268.664 220.04 267.259 221.194 265.614 221.875C263.97 222.556 262.16 222.734 260.414 222.387C258.668 222.04 257.065 221.183 255.806 219.924C254.547 218.665 253.69 217.062 253.343 215.316C252.996 213.57 253.174 211.76 253.855 210.116C254.536 208.471 255.69 207.066 257.17 206.077C258.65 205.088 260.39 204.56 262.17 204.56C264.557 204.56 266.846 205.508 268.534 207.196C270.222 208.884 271.17 211.173 271.17 213.56Z" fill="#5D5D5D"/>
<path d="M286.561 260.81L274.561 245.81L268.561 238.24C265.061 233.85 259.321 233.85 255.821 238.24L249.821 245.81C246.321 250.2 240.931 256.95 237.821 260.81C234.711 264.67 236.131 269.43 240.901 271.39C240.901 271.39 251.481 275.23 262.181 275.23C272.881 275.23 283.461 271.39 283.461 271.39C288.251 269.43 289.631 264.66 286.561 260.81ZM278.281 268.12C273.098 269.895 267.676 270.873 262.201 271.02C256.725 270.873 251.303 269.895 246.121 268.12C242.511 266.64 241.461 263.04 243.791 260.12L252.791 248.78L257.351 243.06C257.895 242.291 258.615 241.663 259.452 241.229C260.289 240.796 261.218 240.57 262.161 240.57C263.103 240.57 264.032 240.796 264.869 241.229C265.706 241.663 266.427 242.291 266.971 243.06L271.531 248.78L280.531 260.12C282.921 263.12 281.921 266.68 278.281 268.12Z" fill="#C2C2C2"/>
<path d="M314.65 205L296.65 211.74L287.62 215.12C282.36 217.12 280.62 222.55 283.68 227.24L289.01 235.31L299.59 251.31C302.31 255.43 307.27 255.59 310.59 251.65C310.59 251.65 317.51 242.77 320.82 232.65C324.13 222.53 323.74 211.22 323.74 211.22C323.37 206.06 319.27 203.26 314.65 205ZM319.09 215.12C319.189 220.605 318.457 226.074 316.92 231.34C315.085 236.5 312.479 241.352 309.19 245.73C306.66 248.73 302.92 248.59 300.86 245.48L292.86 233.38L288.86 227.27C288.296 226.513 287.923 225.632 287.771 224.7C287.619 223.768 287.693 222.814 287.987 221.917C288.281 221.02 288.787 220.207 289.461 219.546C290.135 218.885 290.958 218.396 291.86 218.12L298.71 215.55L312.29 210.46C315.69 209.12 318.79 211.26 319.09 215.12Z" fill="#C2C2C2"/>
<path d="M270.25 161.04C270.47 165.97 270.85 174.6 271.11 180.21L271.54 189.88C271.79 195.49 276.43 198.88 281.84 197.37L291.17 194.79L309.67 189.68C314.43 188.36 316.1 183.68 313.4 179.3C313.4 179.3 307.09 169.98 298.4 163.69C289.71 157.4 278.93 154.29 278.93 154.29C273.92 153.12 270.03 156.12 270.25 161.04ZM281.25 159.96C291.908 162.929 301.138 169.639 307.25 178.86C309.3 182.18 308.03 185.71 304.44 186.7L290.44 190.56L283.39 192.51C282.497 192.812 281.544 192.896 280.612 192.754C279.679 192.612 278.795 192.249 278.032 191.694C277.269 191.14 276.65 190.411 276.227 189.568C275.804 188.725 275.589 187.793 275.6 186.85L275.28 179.55C275.08 175.31 274.79 168.79 274.63 165.06C274.47 161.33 277.49 159.04 281.28 159.96H281.25Z" fill="#C2C2C2"/>
<path d="M214.73 189.68L233.23 194.79L242.55 197.37C247.97 198.87 252.61 195.49 252.85 189.88L253.29 180.21C253.54 174.6 253.92 165.97 254.14 161.04C254.36 156.11 250.44 153.04 245.42 154.29C245.42 154.29 234.61 157.41 225.96 163.69C217.31 169.97 210.96 179.3 210.96 179.3C208.29 183.69 209.97 188.37 214.73 189.68ZM217.1 178.86C223.208 169.635 232.44 162.924 243.1 159.96C246.89 159.04 249.85 161.33 249.69 165.06C249.53 168.79 249.23 175.31 249.04 179.55L248.71 186.85C248.723 187.793 248.51 188.725 248.088 189.568C247.666 190.411 247.048 191.14 246.286 191.695C245.523 192.249 244.639 192.613 243.707 192.755C242.775 192.896 241.823 192.813 240.93 192.51L233.92 190.56L219.92 186.7C216.33 185.71 215.05 182.18 217.1 178.86Z" fill="#C2C2C2"/>
<path d="M224.8 251.34C227.53 247.22 232.29 240.01 235.38 235.34L240.71 227.27C243.81 222.58 242.04 217.13 236.78 215.16L227.72 211.76L209.72 205.02C205.1 203.29 201 206.08 200.6 211.22C200.6 211.22 200.23 222.48 203.53 232.65C206.83 242.82 213.75 251.7 213.75 251.7C217.12 255.61 222.08 255.46 224.8 251.34ZM215.25 245.74C211.962 241.357 209.356 236.502 207.52 231.34C205.964 226.077 205.218 220.608 205.31 215.12C205.61 211.23 208.71 209.12 212.2 210.43L225.78 215.52L232.63 218.09C233.533 218.366 234.356 218.855 235.03 219.516C235.704 220.177 236.209 220.99 236.503 221.887C236.797 222.784 236.871 223.738 236.72 224.67C236.568 225.602 236.194 226.483 235.63 227.24L231.63 233.35C229.29 236.89 225.69 242.35 223.63 245.45C221.57 248.55 217.77 248.71 215.25 245.74Z" fill="#C2C2C2"/>
<path d="M268.75 213.56C268.75 214.855 268.366 216.122 267.647 217.199C266.927 218.276 265.904 219.116 264.707 219.611C263.51 220.107 262.193 220.237 260.923 219.984C259.652 219.731 258.485 219.108 257.569 218.192C256.653 217.276 256.029 216.108 255.776 214.838C255.524 213.567 255.653 212.25 256.149 211.053C256.645 209.857 257.484 208.834 258.561 208.114C259.639 207.394 260.905 207.01 262.2 207.01C263.937 207.013 265.601 207.704 266.829 208.931C268.057 210.159 268.748 211.824 268.75 213.56Z" fill="#2A2A2A"/>
<path d="M262.021 285.05L180.021 284.85C180.221 282.29 181.441 281.23 182.921 279.93C184.401 278.63 187.79 276.82 187.79 272.93C187.79 272.93 239.42 281.4 262.03 281.61" fill="#5D5D5D"/>
<path d="M262.01 281.59C250.22 281.12 231.1 278.59 214.88 276.96C218.007 279.049 221.456 280.61 225.09 281.58C230.44 283.04 251.91 283.29 262.01 283.41" fill="#4A4A4A"/>
<path d="M209.921 280.24H210.011C209.527 280.003 209.068 279.718 208.641 279.39C208.962 279.807 209.412 280.105 209.921 280.24Z" fill="#5D5D5D"/>
<path d="M234.27 284.93H232.62C228.665 285.004 224.73 284.354 221.01 283.01C219.492 282.433 217.911 282.04 216.3 281.84C214.13 281.688 212.005 281.143 210.03 280.23H209.94C209.434 280.101 208.984 279.809 208.66 279.4C208.13 279.026 207.695 278.533 207.39 277.96C206.874 277.018 206.149 276.207 205.27 275.59L203.67 275.35C203.96 275.65 204.67 276.35 205.92 277.4C206.467 277.884 206.898 278.486 207.18 279.16C207.374 279.69 207.693 280.165 208.109 280.546C208.524 280.927 209.026 281.203 209.57 281.35C211.024 281.748 212.504 282.042 214 282.23C215.814 282.426 217.601 282.818 219.33 283.4C220.906 284.092 222.552 284.612 224.24 284.95H234.24L234.27 284.93Z" fill="#767676"/>
<path d="M206.69 276.52C207.363 277.106 207.893 277.838 208.24 278.66C208.358 278.922 208.498 279.173 208.66 279.41C209.088 279.738 209.547 280.023 210.03 280.26C211.394 280.623 212.781 280.894 214.18 281.07C216.106 281.277 218.002 281.703 219.83 282.34C222.52 283.59 227.71 284.83 234.25 284.55V284.93L235.6 284.88V284.29C227.9 284.71 224.34 283.52 221.21 282.48C219.65 281.894 218.025 281.495 216.37 281.29C211.43 280.79 208.57 279.14 207.93 277.73C207.515 276.963 206.955 276.284 206.28 275.73L205.73 275.64L206.69 276.52Z" fill="#3F3F3F"/>
<path d="M219.83 282.34C218.002 281.703 216.106 281.276 214.18 281.07C212.78 280.893 211.394 280.623 210.03 280.26C212.005 281.173 214.13 281.718 216.3 281.87C217.911 282.07 219.493 282.463 221.01 283.04C224.731 284.384 228.665 285.034 232.62 284.96H234.27V284.58C227.71 284.83 222.52 283.59 219.83 282.34Z" fill="#3F3F3F"/>
<path d="M206.69 276.52L205.69 275.66L205.24 275.6C206.119 276.217 206.845 277.028 207.36 277.97C207.665 278.543 208.1 279.036 208.63 279.41C208.468 279.173 208.327 278.922 208.21 278.66C207.872 277.841 207.352 277.109 206.69 276.52Z" fill="#3F3F3F"/>
<path d="M198.21 274.55C198.21 274.55 193.99 274.76 193.65 275.66C193.49 276.09 191.16 279.08 191.16 279.08L195.01 279.41L197.2 276.98L200.78 276.74L202.06 274.99L198.21 274.55Z" fill="#4A4A4A"/>
<path d="M201.231 277.5C200.119 277.632 199.016 277.836 197.931 278.11C197.931 278.26 196.091 280.26 196.091 280.26L192.891 280.8L194.011 282.13L196.091 280.8L197.931 279.41L199.791 278.41L202.061 278.34L201.231 277.5Z" fill="#4A4A4A"/>
<path d="M262.01 285.05L344.33 284.89C344.13 282.33 342.92 281.26 341.44 279.97C339.96 278.68 336.57 276.86 336.57 272.97C336.57 272.97 284.62 281.41 262.02 281.62" fill="#5D5D5D"/>
<path d="M262.021 281.59C273.841 281.19 293.131 278.8 309.461 277C306.327 279.082 302.875 280.639 299.241 281.61C293.901 283.08 272.121 283.3 262.021 283.41" fill="#4A4A4A"/>
<path d="M314.391 280.28H314.311C314.791 280.043 315.247 279.758 315.671 279.43C315.351 279.849 314.9 280.148 314.391 280.28Z" fill="#5D5D5D"/>
<path d="M290.07 284.97H291.71C295.661 285.068 299.596 284.441 303.32 283.12C304.838 282.544 306.419 282.151 308.03 281.95C310.202 281.787 312.328 281.242 314.31 280.34H314.39C314.897 280.213 315.348 279.921 315.67 279.51C316.206 279.135 316.645 278.638 316.95 278.06C317.464 277.122 318.186 276.315 319.06 275.7L320.67 275.46C320.37 275.76 319.67 276.46 318.42 277.51C317.867 277.991 317.433 278.593 317.15 279.27C316.957 279.8 316.639 280.276 316.223 280.657C315.807 281.039 315.305 281.314 314.76 281.46C313.309 281.857 311.832 282.151 310.34 282.34C308.522 282.53 306.731 282.922 305 283.51C303.425 284.203 301.778 284.723 300.09 285.06H290.09L290.07 284.97Z" fill="#767676"/>
<path d="M317.65 276.55C316.974 277.135 316.44 277.867 316.09 278.69C315.973 278.955 315.832 279.21 315.67 279.45C315.247 279.778 314.791 280.063 314.31 280.3C312.943 280.664 311.554 280.934 310.15 281.11C308.228 281.317 306.335 281.743 304.51 282.38C301.82 283.62 296.63 284.87 290.09 284.58V284.97L288.74 284.91V284.32C296.44 284.74 299.99 283.56 303.13 282.51C304.689 281.93 306.31 281.531 307.96 281.32C312.91 280.83 315.76 279.18 316.4 277.76C316.844 276.992 317.427 276.314 318.12 275.76L318.61 275.69L317.65 276.55Z" fill="#3F3F3F"/>
<path d="M304.51 282.38C306.336 281.743 308.228 281.316 310.15 281.11C311.554 280.934 312.944 280.664 314.31 280.3C312.328 281.202 310.202 281.747 308.03 281.91C306.418 282.124 304.837 282.531 303.32 283.12C299.6 284.464 295.665 285.115 291.71 285.04H290.07V284.65C296.63 284.87 301.82 283.62 304.51 282.38Z" fill="#3F3F3F"/>
<path d="M317.65 276.55L318.65 275.7L319.09 275.64C318.216 276.255 317.494 277.063 316.98 278C316.675 278.578 316.236 279.075 315.7 279.45C315.862 279.21 316.003 278.955 316.12 278.69C316.462 277.87 316.985 277.139 317.65 276.55Z" fill="#3F3F3F"/>
<path d="M326.121 274.58C326.121 274.58 330.35 274.79 330.69 275.7C330.85 276.13 333.171 279.12 333.171 279.12L329.32 279.45L327.13 277.01L323.551 276.77L322.271 275.03L326.121 274.58Z" fill="#4A4A4A"/>
<path d="M323.1 277.54C324.213 277.672 325.315 277.875 326.401 278.15C326.401 278.29 328.241 280.3 328.241 280.3L331.44 280.84L330.32 282.12L328.241 280.8L326.401 279.41L324.54 278.41L322.271 278.35L323.1 277.54Z" fill="#4A4A4A"/>
<path d="M247.67 281.48C247.54 281.64 247.25 281.86 247.11 282.05C246.987 282.202 246.893 282.375 246.83 282.56C246.94 282.49 247.08 282.35 247.26 282.2C247.44 282.05 247.46 282.05 247.56 281.96C247.705 281.873 247.831 281.757 247.93 281.62C247.971 281.534 247.992 281.44 247.992 281.345C247.992 281.25 247.971 281.156 247.93 281.07C247.903 281.03 247.889 280.983 247.889 280.935C247.889 280.887 247.903 280.84 247.93 280.8C248.024 280.648 248.135 280.507 248.26 280.38C248.062 280.422 247.883 280.527 247.75 280.68C247.706 280.749 247.669 280.823 247.64 280.9C247.624 280.986 247.624 281.074 247.64 281.16C247.7 281.32 247.71 281.38 247.67 281.48Z" fill="#5D5D5D"/>
<path d="M250.45 281.75C250.317 281.897 250.173 282.034 250.02 282.16C249.957 282.209 249.907 282.273 249.876 282.347C249.844 282.42 249.832 282.5 249.84 282.58C249.922 282.472 250.028 282.387 250.15 282.33C250.361 282.235 250.547 282.091 250.69 281.91C250.8 281.69 250.825 281.437 250.76 281.2C250.76 281.02 250.76 280.9 250.7 280.79C250.608 280.911 250.555 281.058 250.55 281.21C250.546 281.394 250.512 281.577 250.45 281.75Z" fill="#5D5D5D"/>
<path d="M253.99 281.98C253.77 282.26 253.47 282.62 253.53 282.82C253.782 282.61 254.019 282.383 254.24 282.14C254.313 281.984 254.351 281.813 254.351 281.64C254.351 281.467 254.313 281.297 254.24 281.14C254.13 281.27 254.14 281.69 253.99 281.98Z" fill="#5D5D5D"/>
<path d="M257.32 282.01C257.32 282.22 257.25 282.38 257.21 282.52C257.17 282.66 257.14 282.84 257.21 282.91C257.261 282.801 257.328 282.699 257.41 282.61C257.516 282.446 257.587 282.262 257.62 282.07C257.714 281.761 257.686 281.428 257.54 281.14C257.45 281.426 257.377 281.716 257.32 282.01Z" fill="#5D5D5D"/>
<path d="M259.921 282.12C259.861 282.29 259.761 282.49 259.711 282.65C259.678 282.785 259.678 282.925 259.711 283.06C259.792 282.959 259.866 282.852 259.931 282.74C260.056 282.583 260.157 282.408 260.231 282.22C260.324 281.887 260.292 281.531 260.141 281.22C260.041 281.36 260.071 281.76 259.921 282.12Z" fill="#5D5D5D"/>
<path d="M262.92 282.26C262.818 282.374 262.727 282.498 262.65 282.63C262.56 282.77 262.65 282.95 262.71 282.96C262.71 282.78 262.9 282.75 263.17 282.42C263.44 282.09 263.17 281.76 263.28 281.63C263.06 281.61 263.02 282.12 262.92 282.26Z" fill="#5D5D5D"/>
<path d="M265.58 282.12C265.18 282.45 264.91 282.8 264.7 282.76C264.76 282.88 265 282.85 265.18 282.76C265.393 282.644 265.591 282.503 265.77 282.34L265.88 282.25L266.17 282.06C266.245 281.983 266.309 281.895 266.36 281.8C266.417 281.672 266.457 281.538 266.48 281.4C266.28 281.53 266.18 281.85 265.75 281.99C265.688 282.026 265.631 282.07 265.58 282.12Z" fill="#5D5D5D"/>
<path d="M269.21 281.89C268.85 282.31 268.83 282.66 268.67 282.8C268.91 282.8 269.17 282.38 269.41 282.11C269.65 281.84 269.79 281.84 269.85 281.62C269.888 281.472 269.888 281.317 269.85 281.17C269.78 281.25 269.76 281.41 269.67 281.53C269.58 281.65 269.42 281.71 269.21 281.89Z" fill="#5D5D5D"/>
<path d="M273.43 281.55C273.336 281.783 273.279 282.03 273.26 282.28C273.262 282.443 273.289 282.605 273.34 282.76C273.4 282.616 273.444 282.465 273.47 282.31C273.52 282.11 273.63 281.92 273.7 281.68C273.829 281.291 273.876 280.879 273.84 280.47C273.66 280.63 273.6 281.12 273.43 281.55Z" fill="#5D5D5D"/>
<path d="M277.3 281.31C277.177 281.654 277.087 282.009 277.03 282.37C277.3 282.092 277.49 281.747 277.58 281.37C277.648 281.182 277.663 280.98 277.624 280.785C277.585 280.589 277.494 280.408 277.36 280.26C277.402 280.611 277.382 280.966 277.3 281.31Z" fill="#5D5D5D"/>
<path d="M221.67 275.24C222.921 274.198 224.259 273.264 225.67 272.45C224.151 273.067 222.745 273.932 221.51 275.01C220.74 275.75 219.86 276.41 219.62 277.29C219.48 277.7 219.42 278.07 219.3 278.37C219.214 278.626 219.07 278.859 218.88 279.05C219.112 278.894 219.296 278.676 219.41 278.42C219.56 278.12 219.66 277.74 219.82 277.36C220.04 276.58 220.92 275.98 221.67 275.24Z" fill="#5D5D5D"/>
<path d="M225.41 276.87C225.9 276.153 226.493 275.513 227.17 274.97C227.74 274.48 228.17 274.09 228.49 273.83C228.16 274.02 227.65 274.35 227.03 274.83C226.299 275.355 225.666 276.005 225.16 276.75C224.61 277.62 224.55 278.58 224.16 279.2C223.855 279.682 223.417 280.068 222.9 280.31C223.485 280.162 223.997 279.806 224.34 279.31C224.81 278.61 224.92 277.66 225.41 276.87Z" fill="#5D5D5D"/>
<path d="M229.83 278.12C230.521 277.263 231.258 276.445 232.04 275.67C231.091 276.277 230.26 277.054 229.59 277.96C229.385 278.255 229.204 278.566 229.05 278.89C228.907 279.161 228.75 279.425 228.58 279.68C228.313 280.024 228 280.331 227.65 280.59C228.069 280.412 228.444 280.146 228.75 279.81C228.955 279.565 229.136 279.3 229.29 279.02C229.453 278.71 229.634 278.41 229.83 278.12Z" fill="#5D5D5D"/>
<path d="M233.24 279.6C233.471 279.048 233.742 278.513 234.05 278C234.32 277.56 234.61 277.26 234.74 277C234.421 277.253 234.13 277.538 233.87 277.85C233.503 278.348 233.198 278.889 232.96 279.46C232.789 280.026 232.515 280.555 232.15 281.02C231.862 281.303 231.591 281.604 231.34 281.92C231.56 281.76 231.89 281.52 232.34 281.17C232.756 280.722 233.064 280.185 233.24 279.6Z" fill="#5D5D5D"/>
<path d="M237.531 279.95C237.851 279.2 238.331 278.59 238.431 278.26C237.933 278.702 237.535 279.244 237.261 279.85C237.175 280.054 237.121 280.27 237.101 280.49V281.04C237.064 281.278 236.944 281.494 236.761 281.65C236.896 281.611 237.018 281.537 237.115 281.435C237.211 281.333 237.279 281.207 237.311 281.07C237.322 280.687 237.396 280.309 237.531 279.95Z" fill="#5D5D5D"/>
<path d="M241.281 280.33C241.562 279.945 241.797 279.529 241.981 279.09C241.607 279.399 241.286 279.767 241.031 280.18C240.879 280.431 240.758 280.7 240.671 280.98C240.624 281.17 240.601 281.364 240.601 281.56C240.761 281.33 240.921 280.86 241.281 280.33Z" fill="#5D5D5D"/>
<path d="M305.71 273.57C305.398 271.821 304.961 270.096 304.4 268.41C304.51 269.34 305.03 271.29 305.4 273.62C305.77 275.95 306.21 277.98 305.66 278.8C306.056 278.194 306.226 277.469 306.14 276.75C306.09 275.68 305.946 274.616 305.71 273.57Z" fill="#5D5D5D"/>
<path d="M302.611 275.5C302.487 274.54 302.303 273.588 302.061 272.65C301.871 271.84 301.761 271.18 301.641 270.78C301.641 271.19 301.721 271.86 301.851 272.69C301.981 273.52 302.171 274.48 302.311 275.53C302.311 276.06 302.311 276.53 302.311 277.05C302.311 277.57 302.251 277.99 302.221 278.4C302.231 279.034 302.09 279.661 301.811 280.23C302.197 279.703 302.416 279.073 302.441 278.42C302.501 278.01 302.541 277.55 302.581 277.07C302.621 276.59 302.611 276.05 302.611 275.5Z" fill="#5D5D5D"/>
<path d="M299.37 276.81C299.26 274.72 299.16 272.97 299.03 272.15C298.952 273.703 298.952 275.258 299.03 276.81C299.03 277.32 299.11 277.81 299.08 278.29C299.031 278.718 298.955 279.142 298.85 279.56C298.655 280.161 298.655 280.809 298.85 281.41C298.763 280.802 298.836 280.182 299.06 279.61C299.195 279.186 299.295 278.751 299.36 278.31C299.44 277.82 299.38 277.33 299.37 276.81Z" fill="#5D5D5D"/>
<path d="M295.221 278.12C295.151 276.44 295.221 275.03 295.151 274.36C294.95 275.602 294.873 276.862 294.921 278.12C295.081 279.79 294.481 281.12 294.591 281.84C294.671 281.52 294.781 281.02 294.981 280.4C295.2 279.661 295.281 278.888 295.221 278.12Z" fill="#5D5D5D"/>
<path d="M291.531 279.61C291.618 278.608 291.574 277.6 291.401 276.61C291.301 277.12 291.401 278.28 291.231 279.55C291.131 279.85 291.141 280.23 290.981 280.43C290.821 280.63 290.791 280.64 290.691 280.78C290.646 280.851 290.617 280.93 290.605 281.012C290.593 281.095 290.598 281.179 290.621 281.26C290.741 281.62 291.051 281.59 291.171 281.68C291.291 281.77 291.171 281.94 291.121 282.04L291.261 281.88C291.297 281.842 291.318 281.792 291.318 281.74C291.318 281.688 291.297 281.637 291.261 281.6C291.101 281.46 290.861 281.39 290.841 281.24C290.791 281.01 290.981 280.88 291.221 280.61C291.335 280.473 291.407 280.307 291.431 280.13C291.441 279.96 291.481 279.79 291.531 279.61Z" fill="#5D5D5D"/>
<path d="M288.25 280.2C288.355 279.704 288.386 279.195 288.34 278.69C288.322 278.357 288.322 278.023 288.34 277.69C288.208 278.008 288.133 278.346 288.12 278.69C288.099 279.172 288.032 279.651 287.92 280.12C287.82 280.64 287.37 280.85 287.03 281.12C286.896 281.232 286.797 281.38 286.745 281.547C286.694 281.714 286.692 281.892 286.74 282.06C286.746 281.906 286.789 281.755 286.863 281.619C286.938 281.484 287.043 281.368 287.17 281.28C287.5 281.12 288.11 280.83 288.25 280.2Z" fill="#5D5D5D"/>
<path d="M284.17 280.54C284.367 280.191 284.528 279.822 284.65 279.44C284.709 279.18 284.746 278.916 284.76 278.65C284.638 278.882 284.534 279.122 284.45 279.37C284.34 279.67 284.1 280 283.92 280.37C283.74 280.74 283.46 281.06 283.26 281.32C283.086 281.513 282.929 281.721 282.79 281.94C283.01 281.794 283.22 281.633 283.42 281.46C283.698 281.177 283.949 280.869 284.17 280.54Z" fill="#5D5D5D"/>
<path d="M281.33 280.78C281.223 280.408 281.152 280.026 281.12 279.64C281.018 279.776 280.962 279.94 280.96 280.11C280.954 280.353 280.981 280.595 281.04 280.83C281.17 281.32 280.69 281.45 280.53 281.61C280.698 281.615 280.865 281.585 281.02 281.52C281.144 281.446 281.24 281.334 281.296 281.201C281.352 281.068 281.364 280.92 281.33 280.78Z" fill="#5D5D5D"/>
</g>
<path d="M181.239 211.27V246.904H164.385V273.87H125.38V246.904H48.8154V211.27L102.507 105.331H143.92L90.2278 211.27H125.38V175.154H164.385V211.27H181.239Z" fill="#2A2A2A"/>
<path d="M206.587 76.7664C195.584 76.7664 186.662 68.1174 186.662 56.841C186.662 45.5646 195.584 36.9156 206.587 36.9156C217.59 36.9156 226.512 45.5646 226.512 56.841C226.512 68.1174 217.59 76.7664 206.587 76.7664ZM206.587 68.2269C212.827 68.2269 217.754 63.6835 217.754 56.841C217.754 49.9985 212.827 45.4551 206.587 45.4551C200.347 45.4551 195.42 49.9985 195.42 56.841C195.42 63.6835 200.347 68.2269 206.587 68.2269ZM244.308 76.7664C236.261 76.7664 229.802 70.4713 229.802 62.315C229.802 54.1587 236.261 47.8636 244.308 47.8636C252.354 47.8636 258.814 54.1587 258.814 62.315C258.814 70.4713 252.354 76.7664 244.308 76.7664ZM244.308 68.7743C247.866 68.7743 250.603 66.2015 250.603 62.315C250.603 58.4285 247.866 55.8557 244.308 55.8557C240.75 55.8557 238.013 58.4285 238.013 62.315C238.013 66.2015 240.75 68.7743 244.308 68.7743ZM279.825 47.8636C286.996 47.8636 292.908 54.1587 292.908 62.315C292.908 70.4713 286.996 76.7664 279.825 76.7664C276.158 76.7664 273.476 75.5073 271.669 73.4272V86.948H263.458V48.63H271.669V51.2028C273.476 49.1227 276.158 47.8636 279.825 47.8636ZM278.183 68.9933C281.96 68.9933 284.697 66.4205 284.697 62.315C284.697 58.2095 281.96 55.6367 278.183 55.6367C274.406 55.6367 271.669 58.2095 271.669 62.315C271.669 66.4205 274.406 68.9933 278.183 68.9933ZM304.802 56.622C304.802 59.7422 318.268 57.6621 318.268 67.789C318.268 74.0841 312.794 76.7664 306.882 76.7664C301.408 76.7664 297.248 74.6862 295.113 70.2523L302.229 66.2015C302.941 68.2817 304.474 69.4312 306.882 69.4312C308.853 69.4312 309.838 68.8291 309.838 67.7343C309.838 64.7236 296.372 66.311 296.372 56.841C296.372 50.8743 301.408 47.8636 307.101 47.8636C311.535 47.8636 315.476 49.8343 317.776 53.7208L310.769 57.4979C310.002 56.0746 308.908 55.0893 307.101 55.0893C305.678 55.0893 304.802 55.6367 304.802 56.622ZM324.004 62.315L322.361 48.63V37.682H332.215V48.63L330.572 62.315H324.004ZM327.288 76.7664C324.441 76.7664 322.088 74.4125 322.088 71.5661C322.088 68.7196 324.441 66.3658 327.288 66.3658C330.134 66.3658 332.488 68.7196 332.488 71.5661C332.488 74.4125 330.134 76.7664 327.288 76.7664Z" fill="white"/>
<path d="M72.9309 332.862H80.4545V337H68.6317V318.191H80.3202V322.329H72.9309V325.446H79.6484V329.53H72.9309V332.862ZM92.7683 337L89.2215 330.82H87.1794V337H82.8802V318.191H90.4038C93.9775 318.191 96.8526 321.066 96.8526 324.64C96.8526 326.951 95.4553 329.046 93.3863 330.094L97.39 337H92.7683ZM87.1794 322.221V327.058H90.4038C91.5861 327.058 92.5534 326.01 92.5534 324.64C92.5534 323.269 91.5861 322.221 90.4038 322.221H87.1794ZM109.3 337L105.753 330.82H103.711V337H99.4115V318.191H106.935C110.509 318.191 113.384 321.066 113.384 324.64C113.384 326.951 111.987 329.046 109.918 330.094L113.921 337H109.3ZM103.711 322.221V327.058H106.935C108.117 327.058 109.085 326.01 109.085 324.64C109.085 323.269 108.117 322.221 106.935 322.221H103.711ZM124.655 337.376C119.254 337.376 114.874 333.131 114.874 327.595C114.874 322.06 119.254 317.815 124.655 317.815C130.056 317.815 134.436 322.06 134.436 327.595C134.436 333.131 130.056 337.376 124.655 337.376ZM124.655 333.184C127.718 333.184 130.137 330.954 130.137 327.595C130.137 324.237 127.718 322.007 124.655 322.007C121.592 322.007 119.174 324.237 119.174 327.595C119.174 330.954 121.592 333.184 124.655 333.184ZM146.745 337L143.198 330.82H141.156V337H136.856V318.191H144.38C147.954 318.191 150.829 321.066 150.829 324.64C150.829 326.951 149.432 329.046 147.363 330.094L151.366 337H146.745ZM141.156 322.221V327.058H144.38C145.562 327.058 146.53 326.01 146.53 324.64C146.53 323.269 145.562 322.221 144.38 322.221H141.156Z" fill="white"/>
<path d="M166.018 336.11C165.386 336.11 164.868 336.017 164.465 335.832C164.062 335.636 163.767 335.314 163.582 334.867C163.408 334.42 163.326 333.832 163.337 333.101L163.402 328.981H162.029V327.673L163.468 327.346L163.762 324.894H165.348V327.346H167.571V328.981H165.348V333.085C165.348 333.369 165.375 333.603 165.43 333.788C165.484 333.963 165.56 334.104 165.658 334.213C165.767 334.311 165.882 334.382 166.002 334.426C166.122 334.469 166.247 334.497 166.378 334.508L167.473 334.622V336.11H166.018ZM169.057 336.11V323.651H171.084V328.262C171.433 328 171.869 327.76 172.392 327.542C172.926 327.314 173.471 327.199 174.027 327.199C174.67 327.199 175.188 327.33 175.581 327.592C175.984 327.853 176.273 328.218 176.447 328.687C176.632 329.145 176.725 329.668 176.725 330.257V336.11H174.698V330.502C174.698 330.197 174.638 329.935 174.518 329.717C174.398 329.488 174.229 329.319 174.011 329.21C173.793 329.09 173.537 329.03 173.243 329.03C172.959 329.03 172.698 329.063 172.458 329.128C172.218 329.183 171.984 329.265 171.755 329.374C171.537 329.483 171.313 329.608 171.084 329.75V336.11H169.057ZM182.329 336.192C181.381 336.192 180.624 336.061 180.057 335.799C179.501 335.538 179.098 335.085 178.847 334.442C178.596 333.788 178.471 332.883 178.471 331.728C178.471 330.551 178.591 329.641 178.831 328.998C179.07 328.344 179.468 327.886 180.024 327.624C180.58 327.363 181.332 327.232 182.28 327.232C183.12 327.232 183.79 327.319 184.291 327.493C184.804 327.657 185.174 327.957 185.403 328.393C185.643 328.818 185.763 329.423 185.763 330.208C185.763 330.763 185.654 331.21 185.436 331.548C185.218 331.875 184.902 332.11 184.488 332.251C184.084 332.393 183.605 332.464 183.049 332.464H180.482C180.504 333.009 180.575 333.445 180.694 333.772C180.825 334.088 181.054 334.317 181.381 334.459C181.719 334.6 182.21 334.671 182.853 334.671H185.501V335.865C185.054 335.952 184.58 336.028 184.079 336.094C183.588 336.159 183.005 336.192 182.329 336.192ZM180.466 331.238H182.853C183.234 331.238 183.512 331.167 183.686 331.025C183.872 330.872 183.964 330.6 183.964 330.208C183.964 329.826 183.91 329.526 183.801 329.308C183.692 329.09 183.512 328.938 183.261 328.85C183.011 328.752 182.684 328.703 182.28 328.703C181.823 328.703 181.463 328.774 181.201 328.916C180.94 329.058 180.749 329.314 180.629 329.684C180.52 330.044 180.466 330.562 180.466 331.238ZM191.842 336.11V327.346H193.411L193.869 328.752C194.218 328.327 194.605 327.968 195.03 327.673C195.455 327.379 195.962 327.232 196.55 327.232C196.67 327.232 196.796 327.243 196.926 327.265C197.057 327.275 197.177 327.297 197.286 327.33V329.39C197.133 329.368 196.97 329.352 196.796 329.341C196.621 329.33 196.452 329.325 196.289 329.325C195.951 329.325 195.64 329.363 195.357 329.439C195.084 329.515 194.828 329.635 194.588 329.799C194.349 329.951 194.109 330.148 193.869 330.387V336.11H191.842ZM202.272 336.192C201.324 336.192 200.566 336.061 199.999 335.799C199.443 335.538 199.04 335.085 198.789 334.442C198.539 333.788 198.413 332.883 198.413 331.728C198.413 330.551 198.533 329.641 198.773 328.998C199.013 328.344 199.411 327.886 199.967 327.624C200.522 327.363 201.275 327.232 202.223 327.232C203.062 327.232 203.733 327.319 204.234 327.493C204.746 327.657 205.117 327.957 205.346 328.393C205.586 328.818 205.705 329.423 205.705 330.208C205.705 330.763 205.596 331.21 205.378 331.548C205.16 331.875 204.844 332.11 204.43 332.251C204.027 332.393 203.547 332.464 202.991 332.464H200.424C200.446 333.009 200.517 333.445 200.637 333.772C200.768 334.088 200.997 334.317 201.324 334.459C201.662 334.6 202.152 334.671 202.795 334.671H205.444V335.865C204.997 335.952 204.523 336.028 204.021 336.094C203.531 336.159 202.948 336.192 202.272 336.192ZM200.408 331.238H202.795C203.177 331.238 203.455 331.167 203.629 331.025C203.814 330.872 203.907 330.6 203.907 330.208C203.907 329.826 203.852 329.526 203.743 329.308C203.634 329.09 203.455 328.938 203.204 328.85C202.953 328.752 202.626 328.703 202.223 328.703C201.765 328.703 201.405 328.774 201.144 328.916C200.882 329.058 200.691 329.314 200.572 329.684C200.463 330.044 200.408 330.562 200.408 331.238ZM212.933 339.985V335.26C212.584 335.521 212.181 335.745 211.723 335.93C211.276 336.115 210.835 336.208 210.399 336.208C209.614 336.208 208.987 336.05 208.519 335.734C208.061 335.407 207.728 334.911 207.521 334.246C207.325 333.581 207.227 332.742 207.227 331.728C207.227 330.649 207.347 329.777 207.587 329.112C207.827 328.447 208.192 327.968 208.682 327.673C209.173 327.379 209.799 327.232 210.562 327.232C211.086 327.232 211.614 327.248 212.148 327.281C212.693 327.303 213.206 327.341 213.685 327.395C214.176 327.439 214.601 327.483 214.961 327.526V339.985H212.933ZM210.971 334.573C211.298 334.573 211.636 334.518 211.985 334.409C212.345 334.3 212.661 334.164 212.933 334.001V328.752H211.151C210.671 328.752 210.29 328.867 210.007 329.096C209.734 329.314 209.538 329.641 209.418 330.077C209.309 330.502 209.254 331.03 209.254 331.663C209.254 332.404 209.314 332.987 209.434 333.412C209.554 333.837 209.739 334.137 209.99 334.311C210.241 334.486 210.568 334.573 210.971 334.573ZM219.523 336.208C218.717 336.208 218.09 335.985 217.643 335.538C217.196 335.08 216.973 334.415 216.973 333.543V327.346H219V332.954C219 333.532 219.131 333.919 219.393 334.115C219.665 334.311 220.03 334.409 220.488 334.409C220.87 334.409 221.24 334.35 221.6 334.23C221.96 334.11 222.298 333.935 222.614 333.706V327.346H224.641V336.11H222.99L222.614 335.194C222.199 335.456 221.725 335.69 221.191 335.897C220.668 336.104 220.112 336.208 219.523 336.208ZM230.262 336.192C229.313 336.192 228.556 336.061 227.989 335.799C227.433 335.538 227.03 335.085 226.779 334.442C226.528 333.788 226.403 332.883 226.403 331.728C226.403 330.551 226.523 329.641 226.763 328.998C227.003 328.344 227.4 327.886 227.956 327.624C228.512 327.363 229.264 327.232 230.213 327.232C231.052 327.232 231.722 327.319 232.224 327.493C232.736 327.657 233.107 327.957 233.336 328.393C233.575 328.818 233.695 329.423 233.695 330.208C233.695 330.763 233.586 331.21 233.368 331.548C233.15 331.875 232.834 332.11 232.42 332.251C232.017 332.393 231.537 332.464 230.981 332.464H228.414C228.436 333.009 228.507 333.445 228.627 333.772C228.758 334.088 228.986 334.317 229.313 334.459C229.651 334.6 230.142 334.671 230.785 334.671H233.434V335.865C232.987 335.952 232.513 336.028 232.011 336.094C231.521 336.159 230.938 336.192 230.262 336.192ZM228.398 331.238H230.785C231.166 331.238 231.444 331.167 231.619 331.025C231.804 330.872 231.897 330.6 231.897 330.208C231.897 329.826 231.842 329.526 231.733 329.308C231.624 329.09 231.444 328.938 231.194 328.85C230.943 328.752 230.616 328.703 230.213 328.703C229.755 328.703 229.395 328.774 229.134 328.916C228.872 329.058 228.681 329.314 228.561 329.684C228.452 330.044 228.398 330.562 228.398 331.238ZM238.634 336.208C238.383 336.208 238.094 336.197 237.767 336.175C237.451 336.164 237.13 336.143 236.803 336.11C236.487 336.088 236.192 336.055 235.92 336.012C235.647 335.968 235.424 335.919 235.249 335.865V334.671H239.026C239.299 334.671 239.528 334.649 239.713 334.606C239.909 334.562 240.056 334.475 240.154 334.344C240.253 334.213 240.302 334.017 240.302 333.755V333.445C240.302 333.172 240.209 332.96 240.024 332.807C239.849 332.644 239.539 332.562 239.092 332.562H237.767C237.255 332.562 236.797 332.491 236.394 332.349C236.002 332.208 235.691 331.968 235.462 331.63C235.233 331.292 235.119 330.834 235.119 330.257V329.766C235.119 329.21 235.222 328.752 235.429 328.393C235.647 328.022 236.002 327.744 236.492 327.559C236.993 327.363 237.658 327.265 238.487 327.265C238.836 327.265 239.212 327.281 239.615 327.314C240.018 327.346 240.405 327.39 240.776 327.444C241.146 327.488 241.441 327.542 241.659 327.608V328.801H238.094C237.691 328.801 237.38 328.872 237.162 329.014C236.955 329.145 236.852 329.395 236.852 329.766V330.077C236.852 330.317 236.901 330.496 236.999 330.616C237.097 330.736 237.244 330.818 237.44 330.862C237.637 330.905 237.871 330.927 238.143 330.927H239.5C240.362 330.927 240.999 331.123 241.413 331.516C241.828 331.908 242.035 332.464 242.035 333.183V333.903C242.035 334.491 241.898 334.954 241.626 335.292C241.353 335.63 240.961 335.87 240.449 336.012C239.947 336.143 239.342 336.208 238.634 336.208ZM246.906 336.11C246.274 336.11 245.756 336.017 245.353 335.832C244.949 335.636 244.655 335.314 244.47 334.867C244.295 334.42 244.214 333.832 244.224 333.101L244.29 328.981H242.916V327.673L244.355 327.346L244.65 324.894H246.236V327.346H248.459V328.981H246.236V333.085C246.236 333.369 246.263 333.603 246.317 333.788C246.372 333.963 246.448 334.104 246.546 334.213C246.655 334.311 246.77 334.382 246.89 334.426C247.009 334.469 247.135 334.497 247.266 334.508L248.361 334.622V336.11H246.906ZM253.525 336.192C252.577 336.192 251.82 336.061 251.253 335.799C250.697 335.538 250.294 335.085 250.043 334.442C249.792 333.788 249.667 332.883 249.667 331.728C249.667 330.551 249.787 329.641 250.026 328.998C250.266 328.344 250.664 327.886 251.22 327.624C251.776 327.363 252.528 327.232 253.476 327.232C254.316 327.232 254.986 327.319 255.487 327.493C256 327.657 256.37 327.957 256.599 328.393C256.839 328.818 256.959 329.423 256.959 330.208C256.959 330.763 256.85 331.21 256.632 331.548C256.414 331.875 256.098 332.11 255.684 332.251C255.28 332.393 254.801 332.464 254.245 332.464H251.678C251.7 333.009 251.77 333.445 251.89 333.772C252.021 334.088 252.25 334.317 252.577 334.459C252.915 334.6 253.405 334.671 254.049 334.671H256.697V335.865C256.25 335.952 255.776 336.028 255.275 336.094C254.784 336.159 254.201 336.192 253.525 336.192ZM251.661 331.238H254.049C254.43 331.238 254.708 331.167 254.882 331.025C255.068 330.872 255.16 330.6 255.16 330.208C255.16 329.826 255.106 329.526 254.997 329.308C254.888 329.09 254.708 328.938 254.457 328.85C254.207 328.752 253.88 328.703 253.476 328.703C253.019 328.703 252.659 328.774 252.397 328.916C252.136 329.058 251.945 329.314 251.825 329.684C251.716 330.044 251.661 330.562 251.661 331.238ZM261.62 336.208C260.933 336.208 260.355 336.061 259.887 335.767C259.418 335.461 259.064 334.987 258.824 334.344C258.595 333.69 258.48 332.845 258.48 331.81C258.48 330.72 258.584 329.842 258.791 329.177C258.998 328.502 259.342 328.011 259.821 327.706C260.312 327.39 260.966 327.232 261.783 327.232C262.219 327.232 262.65 327.275 263.075 327.363C263.5 327.45 263.87 327.553 264.187 327.673V323.635H266.214V336.11H264.53L264.187 335.26C264.012 335.423 263.778 335.576 263.484 335.717C263.2 335.859 262.895 335.979 262.568 336.077C262.252 336.164 261.936 336.208 261.62 336.208ZM262.306 334.573C262.699 334.573 263.053 334.513 263.369 334.393C263.685 334.262 263.958 334.132 264.187 334.001V329.128C263.914 329.03 263.636 328.943 263.353 328.867C263.069 328.791 262.759 328.752 262.421 328.752C261.963 328.752 261.592 328.84 261.309 329.014C261.026 329.177 260.818 329.472 260.688 329.897C260.568 330.322 260.508 330.927 260.508 331.712C260.508 332.442 260.568 333.02 260.688 333.445C260.808 333.859 260.998 334.153 261.26 334.328C261.532 334.491 261.881 334.573 262.306 334.573ZM272.522 339.985V327.346H274.206L274.549 328.213C274.756 328.049 274.996 327.891 275.269 327.739C275.541 327.586 275.835 327.466 276.151 327.379C276.468 327.281 276.795 327.232 277.132 327.232C277.688 327.232 278.162 327.341 278.555 327.559C278.958 327.777 279.285 328.087 279.536 328.491C279.787 328.883 279.966 329.357 280.075 329.913C280.195 330.458 280.255 331.063 280.255 331.728C280.255 332.687 280.152 333.505 279.945 334.181C279.748 334.845 279.421 335.352 278.964 335.701C278.517 336.05 277.906 336.224 277.132 336.224C276.696 336.224 276.25 336.164 275.792 336.044C275.345 335.925 274.931 335.767 274.549 335.57V339.985H272.522ZM276.495 334.557C276.811 334.557 277.1 334.475 277.361 334.311C277.623 334.137 277.83 333.848 277.983 333.445C278.146 333.042 278.228 332.469 278.228 331.728C278.228 331.02 278.152 330.453 277.999 330.028C277.846 329.603 277.639 329.303 277.378 329.128C277.127 328.954 276.838 328.867 276.511 328.867C276.108 328.867 275.743 328.932 275.416 329.063C275.089 329.183 274.8 329.308 274.549 329.439V334.017C274.833 334.181 275.143 334.311 275.481 334.409C275.819 334.508 276.157 334.557 276.495 334.557ZM283.869 336.208C283.215 336.208 282.681 336.012 282.266 335.619C281.852 335.227 281.645 334.687 281.645 334.001V333.265C281.645 332.589 281.874 332.039 282.332 331.614C282.801 331.189 283.515 330.976 284.474 330.976H286.975V330.208C286.975 329.902 286.921 329.646 286.812 329.439C286.703 329.232 286.507 329.079 286.223 328.981C285.94 328.872 285.509 328.818 284.932 328.818H282.283V327.641C282.686 327.532 283.16 327.439 283.705 327.363C284.25 327.275 284.899 327.232 285.651 327.232C286.37 327.221 286.981 327.308 287.482 327.493C287.984 327.668 288.36 327.962 288.61 328.376C288.872 328.791 289.003 329.357 289.003 330.077V336.11H287.417L287.073 335.162C286.997 335.227 286.861 335.314 286.665 335.423C286.468 335.532 286.223 335.652 285.929 335.783C285.635 335.903 285.308 336.006 284.948 336.094C284.599 336.17 284.239 336.208 283.869 336.208ZM284.85 334.786C284.991 334.786 285.15 334.769 285.324 334.736C285.509 334.693 285.695 334.649 285.88 334.606C286.065 334.551 286.234 334.502 286.387 334.459C286.55 334.404 286.681 334.355 286.779 334.311C286.888 334.268 286.953 334.241 286.975 334.23V331.941L285.079 332.039C284.577 332.082 284.212 332.213 283.983 332.431C283.765 332.649 283.656 332.938 283.656 333.298V333.657C283.656 333.93 283.711 334.153 283.82 334.328C283.94 334.491 284.087 334.606 284.261 334.671C284.446 334.736 284.643 334.775 284.85 334.786ZM293.251 340.148C292.695 340.148 292.199 340.067 291.763 339.903C291.327 339.75 290.984 339.511 290.733 339.184C290.494 338.868 290.374 338.481 290.374 338.023V337.712C290.374 337.233 290.51 336.824 290.782 336.486C291.055 336.159 291.404 335.908 291.829 335.734C292.254 335.559 292.695 335.472 293.153 335.472L293.742 336.143C293.469 336.143 293.224 336.186 293.006 336.273C292.788 336.361 292.614 336.491 292.483 336.666C292.352 336.84 292.287 337.058 292.287 337.32V337.581C292.287 337.974 292.417 338.257 292.679 338.432C292.941 338.617 293.311 338.71 293.791 338.71H295.573C296.074 338.71 296.467 338.611 296.75 338.415C297.044 338.23 297.192 337.941 297.192 337.549V337.271C297.192 337.031 297.143 336.829 297.044 336.666C296.946 336.502 296.788 336.371 296.57 336.273C296.352 336.186 296.058 336.143 295.687 336.143H293.496C292.624 336.143 291.965 335.974 291.518 335.636C291.082 335.298 290.864 334.873 290.864 334.36C290.864 333.924 290.989 333.565 291.24 333.281C291.502 332.998 291.861 332.807 292.319 332.709C291.949 332.535 291.654 332.311 291.436 332.039C291.229 331.766 291.082 331.472 290.995 331.156C290.908 330.84 290.864 330.518 290.864 330.191C290.864 329.526 291 328.987 291.273 328.573C291.545 328.147 291.943 327.837 292.466 327.641C292.99 327.433 293.638 327.33 294.412 327.33H299.137V328.458L297.584 328.671C297.693 328.78 297.807 328.91 297.927 329.063C298.058 329.216 298.167 329.417 298.254 329.668C298.342 329.919 298.385 330.246 298.385 330.649C298.385 331.139 298.282 331.586 298.074 331.99C297.878 332.393 297.551 332.715 297.093 332.954C296.636 333.194 296.02 333.314 295.246 333.314H293.758C293.409 333.314 293.126 333.369 292.908 333.478C292.69 333.587 292.581 333.772 292.581 334.033C292.581 334.251 292.668 334.404 292.842 334.491C293.017 334.578 293.202 334.622 293.398 334.622H295.998C296.663 334.622 297.224 334.709 297.682 334.884C298.151 335.058 298.505 335.331 298.745 335.701C298.985 336.072 299.105 336.562 299.105 337.173V337.451C299.105 338.29 298.832 338.949 298.287 339.429C297.753 339.909 296.93 340.148 295.818 340.148H293.251ZM294.085 331.793H295.033C295.437 331.793 295.747 331.734 295.965 331.614C296.194 331.483 296.347 331.314 296.423 331.107C296.51 330.889 296.554 330.649 296.554 330.387C296.554 330.017 296.494 329.722 296.374 329.504C296.265 329.276 296.102 329.112 295.884 329.014C295.676 328.916 295.42 328.867 295.115 328.867H294.2C293.709 328.867 293.333 328.976 293.071 329.194C292.821 329.412 292.695 329.782 292.695 330.306C292.695 330.829 292.815 331.21 293.055 331.45C293.295 331.679 293.638 331.793 294.085 331.793ZM304.076 336.192C303.128 336.192 302.37 336.061 301.804 335.799C301.248 335.538 300.844 335.085 300.594 334.442C300.343 333.788 300.218 332.883 300.218 331.728C300.218 330.551 300.338 329.641 300.577 328.998C300.817 328.344 301.215 327.886 301.771 327.624C302.327 327.363 303.079 327.232 304.027 327.232C304.866 327.232 305.537 327.319 306.038 327.493C306.551 327.657 306.921 327.957 307.15 328.393C307.39 328.818 307.51 329.423 307.51 330.208C307.51 330.763 307.401 331.21 307.183 331.548C306.965 331.875 306.649 332.11 306.234 332.251C305.831 332.393 305.352 332.464 304.796 332.464H302.229C302.25 333.009 302.321 333.445 302.441 333.772C302.572 334.088 302.801 334.317 303.128 334.459C303.466 334.6 303.956 334.671 304.599 334.671H307.248V335.865C306.801 335.952 306.327 336.028 305.826 336.094C305.335 336.159 304.752 336.192 304.076 336.192ZM302.212 331.238H304.599C304.981 331.238 305.259 331.167 305.433 331.025C305.619 330.872 305.711 330.6 305.711 330.208C305.711 329.826 305.657 329.526 305.548 329.308C305.439 329.09 305.259 328.938 305.008 328.85C304.757 328.752 304.43 328.703 304.027 328.703C303.569 328.703 303.21 328.774 302.948 328.916C302.686 329.058 302.496 329.314 302.376 329.684C302.267 330.044 302.212 330.562 302.212 331.238ZM316.45 336.208C315.763 336.208 315.185 336.061 314.717 335.767C314.248 335.461 313.894 334.987 313.654 334.344C313.425 333.69 313.31 332.845 313.31 331.81C313.31 330.72 313.414 329.842 313.621 329.177C313.828 328.502 314.172 328.011 314.651 327.706C315.142 327.39 315.796 327.232 316.613 327.232C317.049 327.232 317.48 327.275 317.905 327.363C318.33 327.45 318.7 327.553 319.017 327.673V323.635H321.044V336.11H319.36L319.017 335.26C318.842 335.423 318.608 335.576 318.314 335.717C318.03 335.859 317.725 335.979 317.398 336.077C317.082 336.164 316.766 336.208 316.45 336.208ZM317.136 334.573C317.529 334.573 317.883 334.513 318.199 334.393C318.515 334.262 318.788 334.132 319.017 334.001V329.128C318.744 329.03 318.466 328.943 318.183 328.867C317.899 328.791 317.589 328.752 317.251 328.752C316.793 328.752 316.422 328.84 316.139 329.014C315.856 329.177 315.648 329.472 315.518 329.897C315.398 330.322 315.338 330.927 315.338 331.712C315.338 332.442 315.398 333.02 315.518 333.445C315.638 333.859 315.828 334.153 316.09 334.328C316.362 334.491 316.711 334.573 317.136 334.573ZM326.735 336.192C326.048 336.192 325.454 336.121 324.953 335.979C324.451 335.837 324.043 335.598 323.727 335.26C323.411 334.922 323.176 334.464 323.024 333.886C322.871 333.309 322.795 332.584 322.795 331.712C322.795 330.807 322.871 330.066 323.024 329.488C323.176 328.9 323.411 328.442 323.727 328.115C324.054 327.777 324.468 327.548 324.969 327.428C325.471 327.297 326.059 327.232 326.735 327.232C327.433 327.232 328.032 327.303 328.534 327.444C329.035 327.575 329.444 327.804 329.76 328.131C330.076 328.458 330.31 328.916 330.463 329.504C330.615 330.082 330.692 330.818 330.692 331.712C330.692 332.595 330.615 333.33 330.463 333.919C330.321 334.497 330.092 334.954 329.776 335.292C329.46 335.619 329.051 335.854 328.55 335.995C328.048 336.126 327.444 336.192 326.735 336.192ZM326.735 334.573C327.073 334.573 327.362 334.546 327.602 334.491C327.841 334.426 328.038 334.3 328.19 334.115C328.354 333.919 328.474 333.63 328.55 333.249C328.626 332.856 328.664 332.338 328.664 331.695C328.664 331.063 328.626 330.556 328.55 330.175C328.474 329.793 328.354 329.51 328.19 329.325C328.038 329.128 327.841 329.003 327.602 328.949C327.362 328.883 327.073 328.85 326.735 328.85C326.408 328.85 326.125 328.883 325.885 328.949C325.645 329.003 325.449 329.128 325.296 329.325C325.144 329.51 325.024 329.793 324.937 330.175C324.86 330.556 324.822 331.063 324.822 331.695C324.822 332.338 324.86 332.856 324.937 333.249C325.024 333.63 325.144 333.919 325.296 334.115C325.449 334.3 325.645 334.426 325.885 334.491C326.125 334.546 326.408 334.573 326.735 334.573ZM336.074 336.192C335.125 336.192 334.368 336.061 333.801 335.799C333.245 335.538 332.842 335.085 332.591 334.442C332.34 333.788 332.215 332.883 332.215 331.728C332.215 330.551 332.335 329.641 332.575 328.998C332.815 328.344 333.212 327.886 333.768 327.624C334.324 327.363 335.076 327.232 336.025 327.232C336.864 327.232 337.534 327.319 338.036 327.493C338.548 327.657 338.919 327.957 339.147 328.393C339.387 328.818 339.507 329.423 339.507 330.208C339.507 330.763 339.398 331.21 339.18 331.548C338.962 331.875 338.646 332.11 338.232 332.251C337.829 332.393 337.349 332.464 336.793 332.464H334.226C334.248 333.009 334.319 333.445 334.439 333.772C334.569 334.088 334.798 334.317 335.125 334.459C335.463 334.6 335.954 334.671 336.597 334.671H339.246V335.865C338.799 335.952 338.325 336.028 337.823 336.094C337.333 336.159 336.749 336.192 336.074 336.192ZM334.21 331.238H336.597C336.978 331.238 337.256 331.167 337.431 331.025C337.616 330.872 337.709 330.6 337.709 330.208C337.709 329.826 337.654 329.526 337.545 329.308C337.436 329.09 337.256 328.938 337.006 328.85C336.755 328.752 336.428 328.703 336.025 328.703C335.567 328.703 335.207 328.774 334.946 328.916C334.684 329.058 334.493 329.314 334.373 329.684C334.264 330.044 334.21 330.562 334.21 331.238ZM344.446 336.208C344.195 336.208 343.906 336.197 343.579 336.175C343.263 336.164 342.942 336.143 342.615 336.11C342.299 336.088 342.004 336.055 341.732 336.012C341.459 335.968 341.236 335.919 341.061 335.865V334.671H344.838C345.111 334.671 345.34 334.649 345.525 334.606C345.721 334.562 345.868 334.475 345.966 334.344C346.065 334.213 346.114 334.017 346.114 333.755V333.445C346.114 333.172 346.021 332.96 345.836 332.807C345.661 332.644 345.351 332.562 344.904 332.562H343.579C343.067 332.562 342.609 332.491 342.206 332.349C341.814 332.208 341.503 331.968 341.274 331.63C341.045 331.292 340.931 330.834 340.931 330.257V329.766C340.931 329.21 341.034 328.752 341.241 328.393C341.459 328.022 341.814 327.744 342.304 327.559C342.805 327.363 343.47 327.265 344.299 327.265C344.648 327.265 345.024 327.281 345.427 327.314C345.83 327.346 346.217 327.39 346.588 327.444C346.958 327.488 347.253 327.542 347.471 327.608V328.801H343.906C343.503 328.801 343.192 328.872 342.974 329.014C342.767 329.145 342.664 329.395 342.664 329.766V330.077C342.664 330.317 342.713 330.496 342.811 330.616C342.909 330.736 343.056 330.818 343.252 330.862C343.449 330.905 343.683 330.927 343.955 330.927H345.312C346.174 330.927 346.811 331.123 347.225 331.516C347.64 331.908 347.847 332.464 347.847 333.183V333.903C347.847 334.491 347.71 334.954 347.438 335.292C347.165 335.63 346.773 335.87 346.261 336.012C345.759 336.143 345.154 336.208 344.446 336.208ZM353.809 336.11V327.346H355.46L355.836 328.262C356.196 327.989 356.632 327.744 357.144 327.526C357.667 327.308 358.207 327.199 358.763 327.199C359.449 327.199 359.989 327.341 360.381 327.624C360.774 327.897 361.052 328.267 361.215 328.736C361.39 329.205 361.477 329.717 361.477 330.273V336.11H359.449V330.518C359.449 330.202 359.39 329.935 359.27 329.717C359.15 329.499 358.981 329.33 358.763 329.21C358.556 329.09 358.3 329.03 357.994 329.03C357.711 329.03 357.444 329.058 357.193 329.112C356.953 329.167 356.724 329.248 356.506 329.357C356.288 329.466 356.065 329.597 355.836 329.75V336.11H353.809ZM367.163 336.192C366.476 336.192 365.882 336.121 365.381 335.979C364.879 335.837 364.471 335.598 364.155 335.26C363.838 334.922 363.604 334.464 363.452 333.886C363.299 333.309 363.223 332.584 363.223 331.712C363.223 330.807 363.299 330.066 363.452 329.488C363.604 328.9 363.838 328.442 364.155 328.115C364.482 327.777 364.896 327.548 365.397 327.428C365.899 327.297 366.487 327.232 367.163 327.232C367.861 327.232 368.46 327.303 368.961 327.444C369.463 327.575 369.872 327.804 370.188 328.131C370.504 328.458 370.738 328.916 370.891 329.504C371.043 330.082 371.12 330.818 371.12 331.712C371.12 332.595 371.043 333.33 370.891 333.919C370.749 334.497 370.52 334.954 370.204 335.292C369.888 335.619 369.479 335.854 368.978 335.995C368.476 336.126 367.871 336.192 367.163 336.192ZM367.163 334.573C367.501 334.573 367.79 334.546 368.03 334.491C368.269 334.426 368.466 334.3 368.618 334.115C368.782 333.919 368.902 333.63 368.978 333.249C369.054 332.856 369.092 332.338 369.092 331.695C369.092 331.063 369.054 330.556 368.978 330.175C368.902 329.793 368.782 329.51 368.618 329.325C368.466 329.128 368.269 329.003 368.03 328.949C367.79 328.883 367.501 328.85 367.163 328.85C366.836 328.85 366.553 328.883 366.313 328.949C366.073 329.003 365.877 329.128 365.724 329.325C365.572 329.51 365.452 329.793 365.364 330.175C365.288 330.556 365.25 331.063 365.25 331.695C365.25 332.338 365.288 332.856 365.364 333.249C365.452 333.63 365.572 333.919 365.724 334.115C365.877 334.3 366.073 334.426 366.313 334.491C366.553 334.546 366.836 334.573 367.163 334.573ZM376.109 336.11C375.477 336.11 374.959 336.017 374.556 335.832C374.153 335.636 373.858 335.314 373.673 334.867C373.499 334.42 373.417 333.832 373.428 333.101L373.493 328.981H372.12V327.673L373.559 327.346L373.853 324.894H375.439V327.346H377.662V328.981H375.439V333.085C375.439 333.369 375.466 333.603 375.521 333.788C375.575 333.963 375.651 334.104 375.75 334.213C375.859 334.311 375.973 334.382 376.093 334.426C376.213 334.469 376.338 334.497 376.469 334.508L377.564 334.622V336.11H376.109ZM387.008 336.192C386.059 336.192 385.302 336.061 384.735 335.799C384.179 335.538 383.776 335.085 383.525 334.442C383.275 333.788 383.149 332.883 383.149 331.728C383.149 330.551 383.269 329.641 383.509 328.998C383.749 328.344 384.147 327.886 384.702 327.624C385.258 327.363 386.01 327.232 386.959 327.232C387.798 327.232 388.468 327.319 388.97 327.493C389.482 327.657 389.853 327.957 390.082 328.393C390.321 328.818 390.441 329.423 390.441 330.208C390.441 330.763 390.332 331.21 390.114 331.548C389.896 331.875 389.58 332.11 389.166 332.251C388.763 332.393 388.283 332.464 387.727 332.464H385.16C385.182 333.009 385.253 333.445 385.373 333.772C385.504 334.088 385.732 334.317 386.059 334.459C386.397 334.6 386.888 334.671 387.531 334.671H390.18V335.865C389.733 335.952 389.259 336.028 388.757 336.094C388.267 336.159 387.684 336.192 387.008 336.192ZM385.144 331.238H387.531C387.912 331.238 388.19 331.167 388.365 331.025C388.55 330.872 388.643 330.6 388.643 330.208C388.643 329.826 388.588 329.526 388.479 329.308C388.37 329.09 388.19 328.938 387.94 328.85C387.689 328.752 387.362 328.703 386.959 328.703C386.501 328.703 386.141 328.774 385.88 328.916C385.618 329.058 385.427 329.314 385.307 329.684C385.198 330.044 385.144 330.562 385.144 331.238ZM397.268 336.11L391.104 327.346H393.164L399.328 336.11H397.268ZM391.104 336.11L394.472 331.107L395.208 333.003L393.164 336.11H391.104ZM395.96 332.382L395.11 330.698L397.268 327.363L399.328 327.346L395.96 332.382ZM400.837 325.957C400.63 325.957 400.526 325.858 400.526 325.662V324.174C400.526 323.956 400.63 323.847 400.837 323.847H402.374C402.472 323.847 402.543 323.88 402.587 323.945C402.641 324.011 402.668 324.087 402.668 324.174V325.662C402.668 325.858 402.57 325.957 402.374 325.957H400.837ZM400.575 336.11V327.346H402.603V336.11H400.575ZM407.818 336.208C407.567 336.208 407.279 336.197 406.952 336.175C406.635 336.164 406.314 336.143 405.987 336.11C405.671 336.088 405.377 336.055 405.104 336.012C404.832 335.968 404.608 335.919 404.434 335.865V334.671H408.211C408.483 334.671 408.712 334.649 408.897 334.606C409.093 334.562 409.241 334.475 409.339 334.344C409.437 334.213 409.486 334.017 409.486 333.755V333.445C409.486 333.172 409.393 332.96 409.208 332.807C409.033 332.644 408.723 332.562 408.276 332.562H406.952C406.439 332.562 405.981 332.491 405.578 332.349C405.186 332.208 404.875 331.968 404.646 331.63C404.417 331.292 404.303 330.834 404.303 330.257V329.766C404.303 329.21 404.406 328.752 404.614 328.393C404.832 328.022 405.186 327.744 405.676 327.559C406.178 327.363 406.843 327.265 407.671 327.265C408.02 327.265 408.396 327.281 408.799 327.314C409.202 327.346 409.589 327.39 409.96 327.444C410.331 327.488 410.625 327.542 410.843 327.608V328.801H407.279C406.875 328.801 406.565 328.872 406.347 329.014C406.14 329.145 406.036 329.395 406.036 329.766V330.077C406.036 330.317 406.085 330.496 406.183 330.616C406.281 330.736 406.428 330.818 406.625 330.862C406.821 330.905 407.055 330.927 407.328 330.927H408.685C409.546 330.927 410.183 331.123 410.598 331.516C411.012 331.908 411.219 332.464 411.219 333.183V333.903C411.219 334.491 411.083 334.954 410.81 335.292C410.538 335.63 410.145 335.87 409.633 336.012C409.132 336.143 408.527 336.208 407.818 336.208ZM416.09 336.11C415.458 336.11 414.94 336.017 414.537 335.832C414.134 335.636 413.839 335.314 413.654 334.867C413.48 334.42 413.398 333.832 413.409 333.101L413.474 328.981H412.101V327.673L413.539 327.346L413.834 324.894H415.42V327.346H417.643V328.981H415.42V333.085C415.42 333.369 415.447 333.603 415.501 333.788C415.556 333.963 415.632 334.104 415.73 334.213C415.839 334.311 415.954 334.382 416.074 334.426C416.194 334.469 416.319 334.497 416.45 334.508L417.545 334.622V336.11H416.09Z" fill="white"/>
</g>
<defs>
<clipPath id="clip0_18172_6554">
<rect width="500" height="391" fill="white"/>
</clipPath>
</defs>
</svg>
