<svg width="203" height="60" viewBox="0 0 203 60" fill="none" xmlns="http://www.w3.org/2000/svg">
<rect width="203" height="59.2715" rx="6.17411" fill="black"/>
<path d="M44.2914 30.8923C44.3109 29.3777 44.7132 27.8927 45.4609 26.5754C46.2085 25.2581 47.2772 24.1513 48.5676 23.358C47.7479 22.1873 46.6665 21.2239 45.4093 20.5442C44.1521 19.8645 42.7537 19.4874 41.3253 19.4427C38.2782 19.1229 35.3241 21.266 33.7713 21.266C32.1885 21.266 29.7978 19.4745 27.2234 19.5274C25.5582 19.5812 23.9354 20.0654 22.5129 20.9329C21.0905 21.8004 19.9171 23.0215 19.1069 24.4774C15.5975 30.5534 18.2152 39.483 21.5769 44.3944C23.2589 46.7993 25.2246 49.4858 27.7967 49.3905C30.3136 49.2861 31.2536 47.7855 34.2918 47.7855C37.3018 47.7855 38.1837 49.3905 40.808 49.3299C43.5088 49.2861 45.2104 46.9143 46.8333 44.4865C48.0418 42.7729 48.9717 40.879 49.5886 38.8749C48.0195 38.2113 46.6805 37.1004 45.7385 35.6809C44.7965 34.2613 44.2932 32.5959 44.2914 30.8923Z" fill="white"/>
<path d="M39.3345 16.2127C40.8071 14.4449 41.5326 12.1727 41.3569 9.87866C39.1071 10.115 37.029 11.1902 35.5365 12.8902C34.8068 13.7206 34.2479 14.6868 33.8918 15.7334C33.5357 16.78 33.3893 17.8865 33.4611 18.9897C34.5864 19.0013 35.6997 18.7574 36.717 18.2763C37.7344 17.7953 38.6294 17.0897 39.3345 16.2127Z" fill="white"/>
<path d="M77.118 39.3754H69.478L67.6432 44.6691H64.4072L71.6437 25.084H75.0058L82.2423 44.6691H78.9511L77.118 39.3754ZM70.2692 36.9327H76.3252L73.3398 28.3415H73.2563L70.2692 36.9327Z" fill="white"/>
<path d="M97.8708 37.5304C97.8708 41.9677 95.4402 44.8186 91.7723 44.8186C90.8432 44.8661 89.9191 44.6569 89.106 44.2151C88.2928 43.7733 87.6234 43.1166 87.1745 42.3204H87.105V49.3929H84.1055V30.3901H87.0089V32.765H87.0641C87.5337 31.9726 88.2144 31.3193 89.0338 30.8748C89.8531 30.4303 90.7805 30.2112 91.7171 30.2407C95.426 30.2407 97.8708 33.1054 97.8708 37.5304ZM94.7876 37.5304C94.7876 34.6395 93.2587 32.7389 90.9259 32.7389C88.634 32.7389 87.0925 34.6795 87.0925 37.5304C87.0925 40.4075 88.634 42.3343 90.9259 42.3343C93.2587 42.3343 94.7876 40.4475 94.7876 37.5304Z" fill="white"/>
<path d="M113.955 37.5304C113.955 41.9677 111.524 44.8186 107.856 44.8186C106.927 44.866 106.003 44.6569 105.19 44.2151C104.377 43.7733 103.707 43.1166 103.258 42.3203H103.189V49.3929H100.189V30.3901H103.093V32.765H103.148C103.618 31.9726 104.298 31.3193 105.118 30.8748C105.937 30.4303 106.864 30.2111 107.801 30.2407C111.51 30.2407 113.955 33.1054 113.955 37.5304ZM110.872 37.5304C110.872 34.6395 109.343 32.7389 107.01 32.7389C104.718 32.7389 103.176 34.6795 103.176 37.5304C103.176 40.4075 104.718 42.3342 107.01 42.3342C109.343 42.3342 110.872 40.4475 110.872 37.5304H110.872Z" fill="white"/>
<path d="M124.584 39.2123C124.806 41.1545 126.737 42.4297 129.376 42.4297C131.904 42.4297 133.723 41.1544 133.723 39.4032C133.723 37.8831 132.626 36.9728 130.029 36.349L127.431 35.7376C123.75 34.8689 122.042 33.187 122.042 30.4578C122.042 27.0786 125.056 24.7576 129.335 24.7576C133.57 24.7576 136.474 27.0786 136.571 30.4578H133.543C133.362 28.5033 131.709 27.3235 129.292 27.3235C126.876 27.3235 125.223 28.5172 125.223 30.2545C125.223 31.6391 126.279 32.4539 128.862 33.0776L131.07 33.6074C135.183 34.5577 136.891 36.1719 136.891 39.0366C136.891 42.7007 133.904 44.9956 129.154 44.9956C124.709 44.9956 121.708 42.7546 121.514 39.2122L124.584 39.2123Z" fill="white"/>
<path d="M143.365 27.0107V30.3899H146.144V32.711H143.365V40.5829C143.365 41.8058 143.921 42.3757 145.143 42.3757C145.473 42.3701 145.802 42.3474 146.13 42.3079V44.6151C145.581 44.7153 145.022 44.7607 144.464 44.7506C141.505 44.7506 140.351 43.6648 140.351 40.8955V32.711H138.227V30.3899H140.351V27.0107H143.365Z" fill="white"/>
<path d="M147.753 37.5303C147.753 33.0375 150.461 30.2144 154.684 30.2144C158.921 30.2144 161.616 33.0375 161.616 37.5303C161.616 42.0353 158.935 44.8461 154.684 44.8461C150.434 44.8461 147.753 42.0353 147.753 37.5303ZM158.56 37.5303C158.56 34.4483 157.114 32.6294 154.684 32.6294C152.253 32.6294 150.809 34.4622 150.809 37.5303C150.809 40.6245 152.253 42.4296 154.684 42.4296C157.114 42.4296 158.56 40.6245 158.56 37.5303H158.56Z" fill="white"/>
<path d="M164.09 30.3899H166.951V32.8203H167.02C167.214 32.0613 167.669 31.3905 168.309 30.9206C168.949 30.4508 169.735 30.2107 170.535 30.2405C170.881 30.2393 171.226 30.276 171.563 30.3499V33.0914C171.126 32.9611 170.671 32.9013 170.215 32.9143C169.779 32.897 169.345 32.9721 168.942 33.1344C168.538 33.2966 168.176 33.5423 167.879 33.8544C167.582 34.1665 167.358 34.5377 167.221 34.9425C167.085 35.3473 167.04 35.7761 167.089 36.1995V44.669H164.09L164.09 30.3899Z" fill="white"/>
<path d="M185.392 40.4751C184.988 43.0672 182.405 44.8461 179.1 44.8461C174.849 44.8461 172.21 42.063 172.21 37.598C172.21 33.1192 174.863 30.2144 178.974 30.2144C183.017 30.2144 185.559 32.9282 185.559 37.2576V38.2618H175.238V38.439C175.19 38.9645 175.258 39.4939 175.435 39.992C175.613 40.4901 175.898 40.9456 176.269 41.3281C176.641 41.7106 177.092 42.0115 177.592 42.2107C178.092 42.4099 178.629 42.5029 179.169 42.4835C179.878 42.5484 180.589 42.388 181.197 42.0261C181.805 41.6642 182.278 41.1203 182.544 40.4751L185.392 40.4751ZM175.252 36.2134H182.558C182.585 35.7409 182.512 35.268 182.343 34.8245C182.174 34.381 181.913 33.9764 181.576 33.6361C181.24 33.2958 180.835 33.0272 180.387 32.847C179.939 32.6669 179.458 32.5792 178.974 32.5893C178.485 32.5865 178.001 32.6782 177.549 32.8591C177.097 33.0401 176.686 33.3068 176.34 33.6437C175.994 33.9806 175.72 34.3812 175.533 34.8222C175.346 35.2633 175.251 35.7361 175.252 36.2134V36.2134Z" fill="white"/>
<path d="M69.8928 10.3425C70.5217 10.2984 71.1527 10.3912 71.7404 10.6143C72.3281 10.8373 72.8578 11.1851 73.2913 11.6324C73.7248 12.0797 74.0513 12.6155 74.2473 13.201C74.4433 13.7866 74.5038 14.4073 74.4245 15.0185C74.4245 18.0249 72.7616 19.7531 69.8928 19.7531H66.4141V10.3425H69.8928ZM67.9099 18.4222H69.7257C70.1751 18.4485 70.6248 18.3765 71.0421 18.2115C71.4594 18.0465 71.8338 17.7927 72.138 17.4684C72.4423 17.1442 72.6687 16.7578 72.8008 16.3373C72.9329 15.9168 72.9674 15.4728 72.9018 15.0377C72.9627 14.6042 72.9247 14.163 72.7905 13.7455C72.6564 13.3281 72.4294 12.9449 72.1258 12.6232C71.8223 12.3016 71.4497 12.0496 71.0347 11.8852C70.6198 11.7208 70.1728 11.6481 69.7257 11.6723H67.9099V18.4222Z" fill="white"/>
<path d="M76.1139 16.1987C76.0682 15.732 76.1228 15.2611 76.2743 14.8163C76.4257 14.3714 76.6707 13.9624 76.9934 13.6154C77.3161 13.2685 77.7095 12.9913 78.1483 12.8016C78.5871 12.6119 79.0616 12.5139 79.5414 12.5139C80.0212 12.5139 80.4957 12.6119 80.9345 12.8016C81.3733 12.9913 81.7667 13.2685 82.0894 13.6154C82.4121 13.9624 82.657 14.3714 82.8085 14.8163C82.96 15.2611 83.0146 15.732 82.9689 16.1987C83.0155 16.6659 82.9615 17.1375 82.8104 17.5831C82.6594 18.0286 82.4146 18.4384 82.0918 18.786C81.769 19.1337 81.3753 19.4115 80.9361 19.6016C80.4968 19.7917 80.0218 19.8899 79.5414 19.8899C79.061 19.8899 78.5859 19.7917 78.1467 19.6016C77.7075 19.4115 77.3138 19.1337 76.991 18.786C76.6682 18.4384 76.4234 18.0286 76.2724 17.5831C76.1213 17.1375 76.0673 16.6659 76.1139 16.1987ZM81.4935 16.1987C81.4935 14.6593 80.7858 13.7591 79.5438 13.7591C78.297 13.7591 77.5956 14.6593 77.5956 16.1988C77.5956 17.7505 78.297 18.6438 79.5438 18.6438C80.7858 18.6438 81.4936 17.7443 81.4936 16.1987H81.4935Z" fill="white"/>
<path d="M92.0815 19.7527H90.5935L89.0914 14.5222H88.9779L87.4821 19.7527H86.0083L84.0049 12.6509H85.4598L86.7617 18.07H86.8689L88.3632 12.6509H89.7392L91.2335 18.07H91.347L92.6426 12.6509H94.077L92.0815 19.7527Z" fill="white"/>
<path d="M95.7627 12.6509H97.1435V13.7791H97.2507C97.4325 13.3739 97.7392 13.0342 98.128 12.8074C98.5167 12.5806 98.9683 12.478 99.4196 12.5138C99.7732 12.4878 100.128 12.5399 100.459 12.6663C100.789 12.7926 101.086 12.9899 101.327 13.2436C101.569 13.4973 101.749 13.8008 101.854 14.1317C101.959 14.4626 101.987 14.8124 101.935 15.1552V19.7526H100.501V15.5072C100.501 14.3659 99.9933 13.7984 98.9325 13.7984C98.6924 13.7874 98.4527 13.8274 98.2299 13.9154C98.007 14.0035 97.8063 14.1376 97.6415 14.3085C97.4767 14.4794 97.3516 14.6832 97.2749 14.9058C97.1982 15.1284 97.1716 15.3645 97.1971 15.5981V19.7527H95.7627L95.7627 12.6509Z" fill="white"/>
<path d="M104.221 9.87866H105.655V19.7528H104.221V9.87866Z" fill="white"/>
<path d="M107.649 16.1989C107.603 15.7321 107.658 15.2612 107.81 14.8163C107.961 14.3715 108.206 13.9624 108.529 13.6155C108.851 13.2685 109.245 12.9913 109.684 12.8016C110.123 12.6119 110.597 12.5139 111.077 12.5139C111.557 12.5139 112.031 12.6119 112.47 12.8016C112.909 12.9913 113.302 13.2685 113.625 13.6155C113.948 13.9624 114.193 14.3715 114.344 14.8163C114.496 15.2612 114.55 15.7321 114.505 16.1989C114.551 16.6661 114.497 17.1376 114.346 17.5832C114.195 18.0288 113.95 18.4386 113.627 18.7862C113.305 19.1338 112.911 19.4116 112.472 19.6017C112.032 19.7918 111.557 19.89 111.077 19.89C110.597 19.89 110.121 19.7918 109.682 19.6017C109.243 19.4116 108.849 19.1338 108.526 18.7862C108.204 18.4386 107.959 18.0288 107.808 17.5832C107.657 17.1376 107.602 16.6661 107.649 16.1989ZM113.029 16.1989C113.029 14.6595 112.321 13.7592 111.079 13.7592C109.832 13.7592 109.131 14.6595 109.131 16.1989C109.131 17.7506 109.832 18.6439 111.079 18.6439C112.321 18.6439 113.029 17.7445 113.029 16.1989H113.029Z" fill="white"/>
<path d="M116.015 17.7444C116.015 16.466 116.989 15.7291 118.718 15.6243L120.687 15.5134V14.9004C120.687 14.1504 120.179 13.7268 119.199 13.7268C118.398 13.7268 117.843 14.0141 117.684 14.5162H116.295C116.442 13.2963 117.616 12.5139 119.265 12.5139C121.087 12.5139 122.115 13.4003 122.115 14.9004V19.7528H120.734V18.7548H120.62C120.39 19.1128 120.067 19.4046 119.683 19.6005C119.3 19.7964 118.87 19.8893 118.437 19.8698C118.132 19.9008 117.824 19.869 117.532 19.7764C117.24 19.6839 116.972 19.5326 116.743 19.3323C116.515 19.1321 116.332 18.8873 116.207 18.6138C116.081 18.3403 116.016 18.0441 116.015 17.7444ZM120.687 17.1375V16.5438L118.912 16.6547C117.911 16.7202 117.457 17.0528 117.457 17.6789C117.457 18.3181 118.024 18.6901 118.805 18.6901C119.033 18.7127 119.264 18.6901 119.484 18.6237C119.703 18.5573 119.907 18.4485 120.082 18.3036C120.258 18.1588 120.402 17.9809 120.506 17.7806C120.61 17.5803 120.671 17.3616 120.687 17.1375Z" fill="white"/>
<path d="M123.999 16.1989C123.999 13.9548 125.18 12.5332 127.016 12.5332C127.47 12.5128 127.921 12.6191 128.316 12.8397C128.71 13.0603 129.033 13.3862 129.245 13.7792H129.352V9.87866H130.786V19.7528H129.412V18.6308H129.298C129.07 19.0211 128.736 19.3429 128.334 19.5613C127.932 19.7797 127.476 19.8864 127.016 19.8699C125.167 19.8699 123.999 18.4483 123.999 16.1989ZM125.481 16.1989C125.481 17.7052 126.207 18.6116 127.423 18.6116C128.632 18.6116 129.379 17.6921 129.379 16.205C129.379 14.7249 128.624 13.7923 127.423 13.7923C126.215 13.7923 125.481 14.7049 125.481 16.1989H125.481Z" fill="white"/>
<path d="M136.721 16.1987C136.676 15.732 136.73 15.2611 136.882 14.8163C137.033 14.3714 137.278 13.9624 137.601 13.6154C137.924 13.2685 138.317 12.9913 138.756 12.8016C139.194 12.6119 139.669 12.5139 140.149 12.5139C140.629 12.5139 141.103 12.6119 141.542 12.8016C141.981 12.9913 142.374 13.2685 142.697 13.6154C143.019 13.9624 143.264 14.3714 143.416 14.8163C143.567 15.2611 143.622 15.732 143.576 16.1987C143.623 16.6659 143.569 17.1375 143.418 17.5831C143.267 18.0286 143.022 18.4384 142.699 18.786C142.376 19.1337 141.983 19.4115 141.543 19.6016C141.104 19.7917 140.629 19.8899 140.149 19.8899C139.668 19.8899 139.193 19.7917 138.754 19.6016C138.315 19.4115 137.921 19.1337 137.598 18.786C137.276 18.4384 137.031 18.0286 136.88 17.5831C136.729 17.1375 136.675 16.6659 136.721 16.1987ZM142.101 16.1987C142.101 14.6593 141.393 13.7591 140.151 13.7591C138.904 13.7591 138.203 14.6593 138.203 16.1988C138.203 17.7505 138.904 18.6438 140.151 18.6438C141.393 18.6438 142.101 17.7443 142.101 16.1987Z" fill="white"/>
<path d="M145.501 12.6509H146.882V13.7791H146.989C147.171 13.3739 147.477 13.0342 147.866 12.8074C148.255 12.5806 148.707 12.478 149.158 12.5138C149.511 12.4878 149.867 12.5399 150.197 12.6663C150.527 12.7926 150.824 12.9899 151.066 13.2436C151.307 13.4973 151.487 13.8008 151.592 14.1317C151.698 14.4626 151.725 14.8124 151.674 15.1552V19.7526H150.239V15.5072C150.239 14.3659 149.732 13.7984 148.671 13.7984C148.431 13.7874 148.191 13.8274 147.968 13.9154C147.745 14.0035 147.545 14.1376 147.38 14.3085C147.215 14.4794 147.09 14.6832 147.013 14.9058C146.936 15.1284 146.91 15.3645 146.935 15.5981V19.7527H145.501V12.6509Z" fill="white"/>
<path d="M159.778 10.8828V12.6833H161.353V13.8639H159.778V17.5156C159.778 18.2596 160.092 18.5853 160.806 18.5853C160.989 18.5847 161.171 18.5739 161.353 18.553V19.7204C161.095 19.7654 160.834 19.7894 160.573 19.792C158.978 19.792 158.342 19.2437 158.342 17.8745V13.8638H157.188V12.6832H158.342V10.8828H159.778Z" fill="white"/>
<path d="M163.312 9.87866H164.734V13.7923H164.848C165.038 13.3833 165.354 13.0417 165.75 12.814C166.147 12.5864 166.605 12.4837 167.064 12.5201C167.416 12.5014 167.767 12.5588 168.094 12.6882C168.42 12.8176 168.714 13.0158 168.953 13.2686C169.192 13.5215 169.371 13.8228 169.477 14.1511C169.583 14.4794 169.614 14.8265 169.567 15.1677V19.7528H168.131V15.5134C168.131 14.3791 167.59 13.8046 166.577 13.8046C166.33 13.7848 166.082 13.818 165.85 13.9016C165.618 13.9853 165.408 14.1175 165.233 14.289C165.059 14.4605 164.925 14.6671 164.841 14.8945C164.757 15.1218 164.725 15.3643 164.747 15.6051V19.7528H163.313L163.312 9.87866Z" fill="white"/>
<path d="M177.93 17.8351C177.735 18.4842 177.313 19.0456 176.737 19.4212C176.162 19.7968 175.469 19.9627 174.781 19.8897C174.302 19.9021 173.826 19.8125 173.386 19.6271C172.947 19.4418 172.553 19.1651 172.234 18.8163C171.914 18.4676 171.676 18.055 171.537 17.6074C171.397 17.1598 171.358 16.6878 171.424 16.2241C171.36 15.759 171.399 15.286 171.539 14.837C171.678 14.388 171.915 13.9736 172.233 13.6218C172.55 13.27 172.942 12.989 173.38 12.7978C173.819 12.6066 174.294 12.5098 174.775 12.5138C176.797 12.5138 178.017 13.8638 178.017 16.0939V16.583H172.885V16.6615C172.862 16.9221 172.896 17.1845 172.983 17.4317C173.071 17.6789 173.21 17.9056 173.392 18.0971C173.574 18.2887 173.795 18.4409 174.041 18.544C174.287 18.6472 174.553 18.699 174.82 18.6961C175.163 18.7363 175.511 18.6759 175.819 18.5226C176.127 18.3693 176.381 18.13 176.549 17.8351L177.93 17.8351ZM172.885 15.5464H176.556C176.574 15.3081 176.541 15.0687 176.458 14.8436C176.376 14.6185 176.247 14.4127 176.078 14.2394C175.91 14.0662 175.706 13.9293 175.48 13.8375C175.254 13.7458 175.011 13.7012 174.767 13.7067C174.519 13.7036 174.272 13.7491 174.043 13.8405C173.813 13.9319 173.604 14.0673 173.429 14.2388C173.253 14.4102 173.115 14.6143 173.021 14.8389C172.928 15.0634 172.882 15.304 172.885 15.5464H172.885Z" fill="white"/>
</svg>
