<svg width="27" height="28" viewBox="0 0 27 28" fill="none" xmlns="http://www.w3.org/2000/svg">
<path fill-rule="evenodd" clip-rule="evenodd" d="M2.7002 6.9124C2.7002 6.64387 2.80687 6.38634 2.99675 6.19646C3.18663 6.00658 3.44416 5.8999 3.7127 5.8999H23.2877C23.5562 5.8999 23.8138 6.00658 24.0036 6.19646C24.1935 6.38634 24.3002 6.64387 24.3002 6.9124C24.3002 7.18093 24.1935 7.43847 24.0036 7.62835C23.8138 7.81823 23.5562 7.9249 23.2877 7.9249H3.7127C3.44416 7.9249 3.18663 7.81823 2.99675 7.62835C2.80687 7.43847 2.7002 7.18093 2.7002 6.9124ZM2.7002 21.0874C2.7002 20.8189 2.80687 20.5613 2.99675 20.3715C3.18663 20.1816 3.44416 20.0749 3.7127 20.0749H23.2877C23.5562 20.0749 23.8138 20.1816 24.0036 20.3715C24.1935 20.5613 24.3002 20.8189 24.3002 21.0874C24.3002 21.3559 24.1935 21.6135 24.0036 21.8033C23.8138 21.9932 23.5562 22.0999 23.2877 22.0999H3.7127C3.44416 22.0999 3.18663 21.9932 2.99675 21.8033C2.80687 21.6135 2.7002 21.3559 2.7002 21.0874ZM2.7002 13.9999C2.7002 13.7314 2.80687 13.4738 2.99675 13.284C3.18663 13.0941 3.44416 12.9874 3.7127 12.9874H13.8377C14.1062 12.9874 14.3638 13.0941 14.5536 13.284C14.7435 13.4738 14.8502 13.7314 14.8502 13.9999C14.8502 14.2684 14.7435 14.526 14.5536 14.7158C14.3638 14.9057 14.1062 15.0124 13.8377 15.0124H3.7127C3.44416 15.0124 3.18663 14.9057 2.99675 14.7158C2.80687 14.526 2.7002 14.2684 2.7002 13.9999Z" fill="black"/>
</svg>
