<svg width="21" height="20" viewBox="0 0 21 20" fill="none" xmlns="http://www.w3.org/2000/svg">
<path d="M17.8878 1.33337H3.11352C2.77417 1.33337 2.44871 1.46818 2.20875 1.70814C1.96879 1.9481 1.83398 2.27356 1.83398 2.61291V17.3872C1.83398 17.7265 1.96879 18.052 2.20875 18.2919C2.44871 18.5319 2.77417 18.6667 3.11352 18.6667H17.8878C18.2271 18.6667 18.5526 18.5319 18.7926 18.2919C19.0325 18.052 19.1673 17.7265 19.1673 17.3872V2.61291C19.1673 2.27356 19.0325 1.9481 18.7926 1.70814C18.5526 1.46818 18.2271 1.33337 17.8878 1.33337ZM7.00028 16.0992H4.39426V7.82134H7.00028V16.0992ZM5.69547 6.67421C5.39986 6.67254 5.11137 6.58335 4.8664 6.41788C4.62144 6.25241 4.43098 6.01809 4.31906 5.74448C4.20714 5.47087 4.17879 5.17025 4.23756 4.88054C4.29634 4.59083 4.43962 4.32502 4.64932 4.11666C4.85902 3.9083 5.12574 3.76673 5.41582 3.70982C5.7059 3.6529 6.00634 3.68319 6.27923 3.79686C6.55211 3.91054 6.78521 4.10249 6.9491 4.34852C7.11299 4.59454 7.20033 4.8836 7.2001 5.17921C7.20288 5.37712 7.1658 5.57357 7.09105 5.75684C7.0163 5.94012 6.90542 6.10647 6.76501 6.24598C6.6246 6.38549 6.45754 6.4953 6.27379 6.56887C6.09004 6.64244 5.89336 6.67827 5.69547 6.67421ZM16.6058 16.1064H14.001V11.5841C14.001 10.2504 13.4341 9.83874 12.7022 9.83874C11.9294 9.83874 11.1711 10.4213 11.1711 11.6178V16.1064H8.56509V7.82736H11.0712V8.97449H11.1049C11.3565 8.46532 12.2376 7.59504 13.5821 7.59504C15.0362 7.59504 16.607 8.4581 16.607 10.9859L16.6058 16.1064Z" fill="black"/>
</svg>
