<svg width="21" height="20" viewBox="0 0 21 20" fill="none" xmlns="http://www.w3.org/2000/svg">
<g clip-path="url(#clip0_17991_6561)">
<path d="M11.7812 10.1897C11.7812 13.332 9.25578 15.8793 6.1407 15.8793C3.02561 15.8793 0.5 13.3314 0.5 10.1897C0.5 7.04806 3.02542 4.5 6.1407 4.5C9.25597 4.5 11.7812 7.04749 11.7812 10.1897Z" fill="black"/>
<path d="M17.9688 10.1897C17.9688 13.1475 16.7061 15.5462 15.1485 15.5462C13.5908 15.5462 12.3281 13.1475 12.3281 10.1897C12.3281 7.23195 13.5906 4.83325 15.1483 4.83325C16.7059 4.83325 17.9686 7.23118 17.9686 10.1897" fill="black"/>
<path d="M20.4993 10.1898C20.4993 12.8392 20.0553 14.9883 19.5074 14.9883C18.9595 14.9883 18.5156 12.8398 18.5156 10.1898C18.5156 7.53977 18.9597 5.39124 19.5074 5.39124C20.0551 5.39124 20.4993 7.53958 20.4993 10.1898Z" fill="black"/>
</g>
<defs>
<clipPath id="clip0_17991_6561">
<rect width="20" height="20" fill="white" transform="translate(0.5)"/>
</clipPath>
</defs>
</svg>
