<svg width="19" height="20" viewBox="0 0 19 20" fill="none" xmlns="http://www.w3.org/2000/svg">
<path d="M9.50065 2.11499C5.14648 2.11499 1.58398 5.66957 1.58398 10.0475C1.58398 14.0058 4.48148 17.2912 8.26565 17.885V12.3433H6.25482V10.0475H8.26565V8.29791C8.26565 6.31082 9.44523 5.21832 11.2582 5.21832C12.1211 5.21832 13.0236 5.36874 13.0236 5.36874V7.32416H12.0261C11.0444 7.32416 10.7357 7.93374 10.7357 8.55916V10.0475H12.9365L12.5802 12.3433H10.7357V17.885C12.6012 17.5904 14.2999 16.6385 15.5252 15.2013C16.7505 13.7641 17.4216 11.9361 17.4173 10.0475C17.4173 5.66957 13.8548 2.11499 9.50065 2.11499Z" fill="black"/>
</svg>
