<svg width="24" height="24" viewBox="0 0 24 24" fill="none" xmlns="http://www.w3.org/2000/svg">
<g clip-path="url(#clip0_2613_2688)">
<path d="M12.0038 7.95683C9.73238 7.95683 7.90023 9.76035 7.90023 11.9963C7.90023 14.2322 9.73238 16.0357 12.0038 16.0357C14.2752 16.0357 16.1074 14.2322 16.1074 11.9963C16.1074 9.76035 14.2752 7.95683 12.0038 7.95683ZM12.0038 14.6225C10.5359 14.6225 9.33595 13.4447 9.33595 11.9963C9.33595 10.5478 10.5324 9.37011 12.0038 9.37011C13.4752 9.37011 14.6717 10.5478 14.6717 11.9963C14.6717 13.4447 13.4717 14.6225 12.0038 14.6225V14.6225ZM17.2324 7.7916C17.2324 8.31543 16.8038 8.73379 16.2752 8.73379C15.7431 8.73379 15.3181 8.31191 15.3181 7.7916C15.3181 7.27129 15.7467 6.84941 16.2752 6.84941C16.8038 6.84941 17.2324 7.27129 17.2324 7.7916ZM19.9502 8.74785C19.8895 7.48574 19.5967 6.36777 18.6574 5.44668C17.7217 4.52559 16.5859 4.2373 15.3038 4.17402C13.9824 4.1002 10.0217 4.1002 8.70023 4.17402C7.42166 4.23379 6.28595 4.52207 5.34666 5.44316C4.40738 6.36426 4.11809 7.48222 4.05381 8.74433C3.97881 10.0451 3.97881 13.9439 4.05381 15.2447C4.11452 16.5068 4.40738 17.6248 5.34666 18.5459C6.28595 19.467 7.41809 19.7553 8.70023 19.8185C10.0217 19.8924 13.9824 19.8924 15.3038 19.8185C16.5859 19.7588 17.7217 19.4705 18.6574 18.5459C19.5931 17.6248 19.8859 16.5068 19.9502 15.2447C20.0252 13.9439 20.0252 10.0486 19.9502 8.74785V8.74785ZM18.2431 16.6404C17.9645 17.3295 17.4252 17.8603 16.7217 18.1381C15.6681 18.5494 13.1681 18.4545 12.0038 18.4545C10.8395 18.4545 8.33595 18.5459 7.28595 18.1381C6.58595 17.8639 6.04666 17.333 5.76452 16.6404C5.34666 15.6033 5.44309 13.1424 5.44309 11.9963C5.44309 10.8502 5.35024 8.38574 5.76452 7.35215C6.04309 6.66308 6.58238 6.13223 7.28595 5.85449C8.33952 5.44316 10.8395 5.53809 12.0038 5.53809C13.1681 5.53809 15.6717 5.44668 16.7217 5.85449C17.4217 6.12871 17.9609 6.65957 18.2431 7.35215C18.6609 8.38926 18.5645 10.8502 18.5645 11.9963C18.5645 13.1424 18.6609 15.6068 18.2431 16.6404Z" fill="white"/>
</g>
<defs>
<clipPath id="clip0_2613_2688">
<rect width="16" height="18" fill="white" transform="translate(4 3)"/>
</clipPath>
</defs>
</svg>
