<svg width="117" height="13" viewBox="0 0 117 13" fill="none" xmlns="http://www.w3.org/2000/svg">
<path d="M8.38 4.61387C8.124 4.14454 7.772 3.78721 7.324 3.54187C6.876 3.29654 6.35333 3.17387 5.756 3.17387C5.09467 3.17387 4.508 3.32321 3.996 3.62187C3.484 3.92054 3.084 4.34721 2.796 4.90187C2.508 5.45654 2.364 6.09654 2.364 6.82187C2.364 7.56854 2.508 8.21921 2.796 8.77387C3.09467 9.32854 3.50533 9.75521 4.028 10.0539C4.55067 10.3525 5.15867 10.5019 5.852 10.5019C6.70533 10.5019 7.404 10.2779 7.948 9.82987C8.492 9.37121 8.84933 8.73654 9.02 7.92587H5.18V6.21387H11.228V8.16587C11.0787 8.94454 10.7587 9.66454 10.268 10.3259C9.77733 10.9872 9.14267 11.5205 8.364 11.9259C7.596 12.3205 6.732 12.5179 5.772 12.5179C4.69467 12.5179 3.71867 12.2779 2.844 11.7979C1.98 11.3072 1.29733 10.6299 0.796 9.76587C0.305333 8.90187 0.06 7.92054 0.06 6.82187C0.06 5.72321 0.305333 4.74187 0.796 3.87787C1.29733 3.00321 1.98 2.32587 2.844 1.84587C3.71867 1.35521 4.68933 1.10987 5.756 1.10987C7.01467 1.10987 8.108 1.41921 9.036 2.03787C9.964 2.64587 10.604 3.50454 10.956 4.61387H8.38ZM15.1253 4.93387C15.4133 4.46454 15.7866 4.09654 16.2453 3.82987C16.7146 3.56321 17.2479 3.42987 17.8453 3.42987V5.78187H17.2533C16.5493 5.78187 16.0159 5.94721 15.6533 6.27787C15.3013 6.60854 15.1253 7.18454 15.1253 8.00587V12.4219H12.8853V3.55787H15.1253V4.93387ZM27.594 7.79787C27.594 8.11787 27.5727 8.40587 27.53 8.66187H21.05C21.1033 9.30187 21.3273 9.80321 21.722 10.1659C22.1167 10.5285 22.602 10.7099 23.178 10.7099C24.01 10.7099 24.602 10.3525 24.954 9.63787H27.37C27.114 10.4912 26.6233 11.1952 25.898 11.7499C25.1727 12.2939 24.282 12.5659 23.226 12.5659C22.3727 12.5659 21.6047 12.3792 20.922 12.0059C20.25 11.6219 19.722 11.0832 19.338 10.3899C18.9647 9.69654 18.778 8.89654 18.778 7.98987C18.778 7.07254 18.9647 6.26721 19.338 5.57387C19.7113 4.88054 20.234 4.34721 20.906 3.97388C21.578 3.60054 22.3513 3.41387 23.226 3.41387C24.0687 3.41387 24.8207 3.59521 25.482 3.95787C26.154 4.32054 26.6713 4.83787 27.034 5.50987C27.4073 6.17121 27.594 6.93387 27.594 7.79787ZM25.274 7.15787C25.2633 6.58187 25.0553 6.12321 24.65 5.78187C24.2447 5.42987 23.7487 5.25387 23.162 5.25387C22.6073 5.25387 22.138 5.42454 21.754 5.76587C21.3807 6.09654 21.1513 6.56054 21.066 7.15787H25.274ZM28.653 7.95787C28.653 7.06187 28.829 6.26721 29.181 5.57387C29.5437 4.88054 30.029 4.34721 30.637 3.97388C31.2557 3.60054 31.9437 3.41387 32.701 3.41387C33.3623 3.41387 33.9383 3.54721 34.429 3.81387C34.9303 4.08054 35.3303 4.41654 35.629 4.82187V3.55787H37.885V12.4219H35.629V11.1259C35.341 11.5419 34.941 11.8885 34.429 12.1659C33.9277 12.4325 33.3463 12.5659 32.685 12.5659C31.9383 12.5659 31.2557 12.3739 30.637 11.9899C30.029 11.6059 29.5437 11.0672 29.181 10.3739C28.829 9.66987 28.653 8.86454 28.653 7.95787ZM35.629 7.98987C35.629 7.44587 35.5223 6.98187 35.309 6.59787C35.0957 6.20321 34.8077 5.90454 34.445 5.70187C34.0823 5.48854 33.693 5.38187 33.277 5.38187C32.861 5.38187 32.477 5.48321 32.125 5.68587C31.773 5.88854 31.485 6.18721 31.261 6.58187C31.0477 6.96587 30.941 7.42454 30.941 7.95787C30.941 8.49121 31.0477 8.96054 31.261 9.36587C31.485 9.76054 31.773 10.0645 32.125 10.2779C32.4877 10.4912 32.8717 10.5979 33.277 10.5979C33.693 10.5979 34.0823 10.4965 34.445 10.2939C34.8077 10.0805 35.0957 9.78187 35.309 9.39787C35.5223 9.00321 35.629 8.53387 35.629 7.98987ZM39.4967 7.98987C39.4967 7.07254 39.6834 6.27254 40.0568 5.58987C40.4301 4.89654 40.9474 4.36321 41.6088 3.98987C42.2701 3.60587 43.0274 3.41387 43.8808 3.41387C44.9794 3.41387 45.8861 3.69121 46.6008 4.24587C47.3261 4.78987 47.8114 5.55787 48.0568 6.54987H45.6408C45.5128 6.16587 45.2941 5.86721 44.9848 5.65387C44.6861 5.42987 44.3128 5.31787 43.8648 5.31787C43.2248 5.31787 42.7181 5.55254 42.3448 6.02187C41.9714 6.48054 41.7848 7.13654 41.7848 7.98987C41.7848 8.83254 41.9714 9.48854 42.3448 9.95787C42.7181 10.4165 43.2248 10.6459 43.8648 10.6459C44.7714 10.6459 45.3634 10.2405 45.6408 9.42987H48.0568C47.8114 10.3899 47.3261 11.1525 46.6008 11.7179C45.8754 12.2832 44.9688 12.5659 43.8808 12.5659C43.0274 12.5659 42.2701 12.3792 41.6088 12.0059C40.9474 11.6219 40.4301 11.0885 40.0568 10.4059C39.6834 9.71254 39.4967 8.90721 39.4967 7.98987ZM54.6898 3.42987C55.3618 3.42987 55.9591 3.57921 56.4818 3.87787C57.0044 4.16587 57.4098 4.59787 57.6978 5.17387C57.9964 5.73921 58.1458 6.42187 58.1458 7.22187V12.4219H55.9058V7.52587C55.9058 6.82187 55.7298 6.28321 55.3778 5.90987C55.0258 5.52587 54.5458 5.33387 53.9378 5.33387C53.3191 5.33387 52.8284 5.52587 52.4658 5.90987C52.1138 6.28321 51.9378 6.82187 51.9378 7.52587V12.4219H49.6978V0.581875H51.9378V4.66187C52.2258 4.27787 52.6098 3.97921 53.0898 3.76587C53.5698 3.54187 54.1031 3.42987 54.6898 3.42987ZM69.2724 1.09387C70.3604 1.09387 71.3257 1.33921 72.1684 1.82987C73.0217 2.30987 73.683 2.98721 74.1524 3.86187C74.6324 4.72587 74.8724 5.71254 74.8724 6.82187C74.8724 7.93121 74.6324 8.92321 74.1524 9.79787C73.683 10.6619 73.0217 11.3392 72.1684 11.8299C71.3257 12.3099 70.3604 12.5499 69.2724 12.5499C68.1737 12.5499 67.1977 12.3099 66.3444 11.8299C65.5017 11.3392 64.8404 10.6619 64.3604 9.79787C63.891 8.92321 63.6564 7.93121 63.6564 6.82187C63.6564 5.71254 63.891 4.72587 64.3604 3.86187C64.8404 2.98721 65.5017 2.30987 66.3444 1.82987C67.1977 1.33921 68.1737 1.09387 69.2724 1.09387ZM69.2724 1.90987C68.3124 1.90987 67.475 2.11254 66.7604 2.51787C66.0457 2.91254 65.4964 3.48321 65.1124 4.22987C64.7284 4.96587 64.5364 5.82987 64.5364 6.82187C64.5364 7.80321 64.7284 8.66721 65.1124 9.41387C65.4964 10.1499 66.0457 10.7259 66.7604 11.1419C67.475 11.5472 68.3124 11.7499 69.2724 11.7499C70.2217 11.7499 71.0537 11.5472 71.7684 11.1419C72.483 10.7259 73.0324 10.1499 73.4164 9.41387C73.8004 8.66721 73.9924 7.80321 73.9924 6.82187C73.9924 5.82987 73.8004 4.96587 73.4164 4.22987C73.0324 3.48321 72.483 2.91254 71.7684 2.51787C71.0644 2.11254 70.2324 1.90987 69.2724 1.90987ZM69.2564 3.17387C68.5844 3.17387 67.9817 3.32321 67.4484 3.62187C66.915 3.92054 66.4937 4.34721 66.1844 4.90187C65.8857 5.44587 65.7364 6.08054 65.7364 6.80587C65.7364 7.53121 65.8857 8.17121 66.1844 8.72587C66.4937 9.28054 66.915 9.70721 67.4484 10.0059C67.9817 10.3045 68.5844 10.4539 69.2564 10.4539C70.0777 10.4539 70.787 10.2299 71.3844 9.78187C71.9817 9.32321 72.371 8.72054 72.5524 7.97387H70.5844C70.467 8.27254 70.2964 8.50187 70.0724 8.66187C69.859 8.82187 69.571 8.90187 69.2084 8.90187C68.7177 8.90187 68.3284 8.72587 68.0404 8.37387C67.763 8.01121 67.6244 7.48854 67.6244 6.80587C67.6244 6.12321 67.763 5.60587 68.0404 5.25387C68.3284 4.90187 68.7177 4.72587 69.2084 4.72587C69.5497 4.72587 69.8377 4.80587 70.0724 4.96587C70.3177 5.12587 70.4884 5.35521 70.5844 5.65387H72.5524C72.371 4.88587 71.9817 4.28321 71.3844 3.84587C70.7977 3.39787 70.0884 3.17387 69.2564 3.17387ZM80.9114 9.89387C81.9354 9.04054 82.7514 8.33121 83.3594 7.76587C83.9674 7.18987 84.474 6.59254 84.8794 5.97387C85.2847 5.35521 85.4874 4.74721 85.4874 4.14987C85.4874 3.60587 85.3594 3.17921 85.1034 2.86987C84.8474 2.56054 84.4527 2.40587 83.9194 2.40587C83.386 2.40587 82.9754 2.58721 82.6874 2.94987C82.3994 3.30187 82.25 3.78721 82.2394 4.40587H80.0634C80.106 3.12587 80.4847 2.15521 81.1994 1.49387C81.9247 0.832541 82.842 0.501874 83.9514 0.501874C85.1674 0.501874 86.1007 0.827208 86.7514 1.47787C87.402 2.11787 87.7274 2.96587 87.7274 4.02187C87.7274 4.85387 87.5034 5.64854 87.0554 6.40587C86.6074 7.16321 86.0954 7.82454 85.5194 8.38987C84.9434 8.94454 84.1914 9.61654 83.2634 10.4059H87.9834V12.2619H80.0794V10.5979L80.9114 9.89387ZM89.3949 6.43787C89.3949 4.59254 89.7255 3.14721 90.3869 2.10187C91.0589 1.05654 92.1682 0.533875 93.7149 0.533875C95.2615 0.533875 96.3655 1.05654 97.0269 2.10187C97.6989 3.14721 98.0349 4.59254 98.0349 6.43787C98.0349 8.29387 97.6989 9.74987 97.0269 10.8059C96.3655 11.8619 95.2615 12.3899 93.7149 12.3899C92.1682 12.3899 91.0589 11.8619 90.3869 10.8059C89.7255 9.74987 89.3949 8.29387 89.3949 6.43787ZM95.8269 6.43787C95.8269 5.64854 95.7735 4.98721 95.6669 4.45387C95.5709 3.90987 95.3682 3.46721 95.0589 3.12587C94.7602 2.78454 94.3122 2.61387 93.7149 2.61387C93.1175 2.61387 92.6642 2.78454 92.3549 3.12587C92.0562 3.46721 91.8535 3.90987 91.7469 4.45387C91.6509 4.98721 91.6029 5.64854 91.6029 6.43787C91.6029 7.24854 91.6509 7.93121 91.7469 8.48587C91.8429 9.02987 92.0455 9.47254 92.3549 9.81387C92.6642 10.1445 93.1175 10.3099 93.7149 10.3099C94.3122 10.3099 94.7655 10.1445 95.0749 9.81387C95.3842 9.47254 95.5869 9.02987 95.6829 8.48587C95.7789 7.93121 95.8269 7.24854 95.8269 6.43787ZM100.443 9.89387C101.467 9.04054 102.283 8.33121 102.891 7.76587C103.499 7.18987 104.005 6.59254 104.411 5.97387C104.816 5.35521 105.019 4.74721 105.019 4.14987C105.019 3.60587 104.891 3.17921 104.635 2.86987C104.379 2.56054 103.984 2.40587 103.451 2.40587C102.917 2.40587 102.507 2.58721 102.219 2.94987C101.931 3.30187 101.781 3.78721 101.771 4.40587H99.5946C99.6373 3.12587 100.016 2.15521 100.731 1.49387C101.456 0.832541 102.373 0.501874 103.483 0.501874C104.699 0.501874 105.632 0.827208 106.283 1.47787C106.933 2.11787 107.259 2.96587 107.259 4.02187C107.259 4.85387 107.035 5.64854 106.587 6.40587C106.139 7.16321 105.627 7.82454 105.051 8.38987C104.475 8.94454 103.723 9.61654 102.795 10.4059H107.515V12.2619H99.6106V10.5979L100.443 9.89387ZM108.958 3.82987C109.011 2.76321 109.385 1.94187 110.078 1.36587C110.782 0.779208 111.705 0.485874 112.846 0.485874C113.625 0.485874 114.291 0.624541 114.846 0.901875C115.401 1.16854 115.817 1.53654 116.094 2.00587C116.382 2.46454 116.526 2.98721 116.526 3.57387C116.526 4.24587 116.35 4.81654 115.998 5.28587C115.657 5.74454 115.246 6.05387 114.766 6.21387V6.27787C115.385 6.46987 115.865 6.81121 116.206 7.30187C116.558 7.79254 116.734 8.42187 116.734 9.18987C116.734 9.82987 116.585 10.4005 116.286 10.9019C115.998 11.4032 115.566 11.7979 114.99 12.0859C114.425 12.3632 113.742 12.5019 112.942 12.5019C111.737 12.5019 110.755 12.1979 109.998 11.5899C109.241 10.9819 108.841 10.0859 108.798 8.90187H110.974C110.995 9.42454 111.171 9.84587 111.502 10.1659C111.843 10.4752 112.307 10.6299 112.894 10.6299C113.438 10.6299 113.854 10.4805 114.142 10.1819C114.441 9.87254 114.59 9.47787 114.59 8.99787C114.59 8.35787 114.387 7.89921 113.982 7.62187C113.577 7.34454 112.947 7.20587 112.094 7.20587H111.63V5.36587H112.094C113.609 5.36587 114.366 4.85921 114.366 3.84587C114.366 3.38721 114.227 3.02987 113.95 2.77387C113.683 2.51787 113.294 2.38987 112.782 2.38987C112.281 2.38987 111.891 2.52854 111.614 2.80587C111.347 3.07254 111.193 3.41387 111.15 3.82987H108.958Z" fill="white"/>
</svg>
