<svg width="203" height="60" viewBox="0 0 203 60" fill="none" xmlns="http://www.w3.org/2000/svg">
<rect width="202.918" height="59.2715" rx="6.17411" fill="black"/>
<path d="M31.3259 28.7496L14.9688 46.11C14.9703 46.113 14.9703 46.1176 14.9718 46.1207C15.4742 48.0058 17.1949 49.3931 19.2382 49.3931C20.0555 49.3931 20.8221 49.1718 21.4797 48.7847L21.5319 48.754L39.9431 38.1303L31.3259 28.7496Z" fill="#EA4335"/>
<path d="M47.8735 25.7933L47.8582 25.7826L39.9093 21.1752L30.9541 29.144L39.9415 38.1284L47.8474 33.5671C49.2332 32.8174 50.175 31.3563 50.175 29.6725C50.175 27.9979 49.247 26.5446 47.8735 25.7933Z" fill="#FBBC04"/>
<path d="M14.9689 13.1605C14.8706 13.5231 14.8184 13.9041 14.8184 14.2974V44.9745C14.8184 45.3678 14.8706 45.7488 14.9705 46.1099L31.8884 29.1935L14.9689 13.1605Z" fill="#4285F4"/>
<path d="M31.4473 29.6357L39.9124 21.1722L21.5227 10.5101C20.8544 10.1092 20.0739 9.87872 19.2397 9.87872C17.1964 9.87872 15.4727 11.2691 14.9703 13.1557C14.9703 13.1572 14.9688 13.1588 14.9688 13.1603L31.4473 29.6357Z" fill="#34A853"/>
<path d="M74.2531 14.784C74.2531 16.0009 73.893 16.9695 73.1713 17.6927C72.3508 18.5523 71.2835 18.9822 69.9707 18.9822C68.7117 18.9822 67.6429 18.5465 66.7643 17.6738C65.8829 16.8025 65.4443 15.7206 65.4443 14.4311C65.4443 13.1402 65.8829 12.0598 66.7643 11.187C67.6429 10.3157 68.7117 9.87862 69.9707 9.87862C70.5937 9.87862 71.192 10.0006 71.7583 10.2446C72.3261 10.4885 72.7806 10.8124 73.1219 11.2175L72.3551 11.9842C71.7786 11.2959 70.9843 10.9503 69.9707 10.9503C69.0529 10.9503 68.2601 11.2727 67.5906 11.9174C66.9212 12.5637 66.5872 13.4001 66.5872 14.4311C66.5872 15.4607 66.9212 16.2986 67.5906 16.9434C68.2601 17.5896 69.0529 17.9105 69.9707 17.9105C70.9436 17.9105 71.754 17.5867 72.4045 16.9375C72.8256 16.515 73.0682 15.9283 73.1335 15.1732H69.9707V14.1262H74.1921C74.2328 14.3542 74.2531 14.5734 74.2531 14.784Z" fill="white"/>
<path d="M74.2531 14.784C74.2531 16.0009 73.893 16.9695 73.1713 17.6927C72.3508 18.5523 71.2835 18.9822 69.9707 18.9822C68.7117 18.9822 67.6429 18.5465 66.7643 17.6738C65.8829 16.8025 65.4443 15.7206 65.4443 14.4311C65.4443 13.1402 65.8829 12.0598 66.7643 11.187C67.6429 10.3157 68.7117 9.87862 69.9707 9.87862C70.5937 9.87862 71.192 10.0006 71.7583 10.2446C72.3261 10.4885 72.7806 10.8124 73.1219 11.2175L72.3551 11.9842C71.7786 11.2959 70.9843 10.9503 69.9707 10.9503C69.0529 10.9503 68.2601 11.2727 67.5906 11.9174C66.9212 12.5637 66.5872 13.4001 66.5872 14.4311C66.5872 15.4607 66.9212 16.2986 67.5906 16.9434C68.2601 17.5896 69.0529 17.9105 69.9707 17.9105C70.9436 17.9105 71.754 17.5867 72.4045 16.9375C72.8256 16.515 73.0682 15.9283 73.1335 15.1732H69.9707V14.1262H74.1921C74.2328 14.3542 74.2531 14.5734 74.2531 14.784Z" fill="white"/>
<path d="M80.9463 11.1451H76.979V13.9071H80.5571V14.9542H76.979V17.7162H80.9463V18.7878H75.8594V10.0749H80.9463V11.1451Z" fill="white"/>
<path d="M80.9463 11.1451H76.979V13.9071H80.5571V14.9542H76.979V17.7162H80.9463V18.7878H75.8594V10.0749H80.9463V11.1451Z" fill="white"/>
<path d="M85.6677 18.7874H84.5481V11.1447H82.1143V10.0744H88.1015V11.1447H85.6677V18.7874Z" fill="white"/>
<path d="M85.6677 18.7874H84.5481V11.1447H82.1143V10.0744H88.1015V11.1447H85.6677V18.7874Z" fill="white"/>
<path d="M92.4336 10.0744H93.5532V18.7874H92.4336V10.0744Z" fill="white"/>
<path d="M98.5183 18.7874H97.3987V11.1447H94.9648V10.0744H100.952V11.1447H98.5183V18.7874Z" fill="white"/>
<path d="M98.5183 18.7874H97.3987V11.1447H94.9648V10.0744H100.952V11.1447H98.5183V18.7874Z" fill="white"/>
<path d="M106.724 16.9317C107.369 17.5852 108.158 17.9105 109.091 17.9105C110.025 17.9105 110.814 17.5852 111.458 16.9317C112.103 16.2783 112.427 15.4447 112.427 14.4311C112.427 13.4175 112.103 12.5825 111.458 11.9305C110.814 11.277 110.025 10.9503 109.091 10.9503C108.158 10.9503 107.369 11.277 106.724 11.9305C106.081 12.5825 105.757 13.4175 105.757 14.4311C105.757 15.4447 106.081 16.2783 106.724 16.9317ZM112.286 17.6607C111.429 18.5422 110.365 18.9822 109.091 18.9822C107.818 18.9822 106.753 18.5422 105.898 17.6607C105.041 16.7807 104.614 15.7047 104.614 14.4311C104.614 13.1576 105.041 12.0801 105.898 11.2001C106.753 10.3201 107.818 9.87862 109.091 9.87862C110.358 9.87862 111.419 10.3215 112.28 11.2059C113.14 12.0902 113.57 13.1648 113.57 14.4311C113.57 15.7047 113.141 16.7807 112.286 17.6607Z" fill="white"/>
<path d="M106.724 16.9317C107.369 17.5852 108.158 17.9105 109.091 17.9105C110.025 17.9105 110.814 17.5852 111.458 16.9317C112.103 16.2783 112.427 15.4447 112.427 14.4311C112.427 13.4175 112.103 12.5825 111.458 11.9305C110.814 11.277 110.025 10.9503 109.091 10.9503C108.158 10.9503 107.369 11.277 106.724 11.9305C106.081 12.5825 105.757 13.4175 105.757 14.4311C105.757 15.4447 106.081 16.2783 106.724 16.9317ZM112.286 17.6607C111.429 18.5422 110.365 18.9822 109.091 18.9822C107.818 18.9822 106.753 18.5422 105.898 17.6607C105.041 16.7807 104.614 15.7047 104.614 14.4311C104.614 13.1576 105.041 12.0801 105.898 11.2001C106.753 10.3201 107.818 9.87862 109.091 9.87862C110.358 9.87862 111.419 10.3215 112.28 11.2059C113.14 12.0902 113.57 13.1648 113.57 14.4311C113.57 15.7047 113.141 16.7807 112.286 17.6607Z" fill="white"/>
<path d="M115.142 18.7874V10.0744H116.504L120.738 16.8516H120.788L120.738 15.1729V10.0744H121.859V18.7874H120.69L116.26 11.6805H116.212L116.26 13.3606V18.7874H115.142Z" fill="white"/>
<path d="M115.142 18.7874V10.0744H116.504L120.738 16.8516H120.788L120.738 15.1729V10.0744H121.859V18.7874H120.69L116.26 11.6805H116.212L116.26 13.3606V18.7874H115.142Z" fill="white"/>
<path d="M160.681 43.4738H163.391V25.3204H160.681V43.4738ZM185.088 31.8595L181.982 39.7302H181.889L178.665 31.8595H175.746L180.58 42.8596L177.826 48.979H180.65L188.101 31.8595H185.088ZM169.721 41.4118C168.832 41.4118 167.595 40.9689 167.595 39.8696C167.595 38.4697 169.136 37.9324 170.468 37.9324C171.658 37.9324 172.22 38.1894 172.943 38.5394C172.733 40.221 171.285 41.4118 169.721 41.4118ZM170.048 31.4631C168.086 31.4631 166.053 32.3271 165.214 34.2425L167.618 35.2459C168.132 34.2425 169.089 33.9143 170.094 33.9143C171.496 33.9143 172.92 34.7551 172.943 36.2508V36.4367C172.453 36.1564 171.403 35.7368 170.118 35.7368C167.525 35.7368 164.885 37.1613 164.885 39.8231C164.885 42.2526 167.011 43.818 169.393 43.818C171.215 43.818 172.22 43.0004 172.851 42.042H172.943V43.4433H175.559V36.4832C175.559 33.2608 173.154 31.4631 170.048 31.4631ZM153.302 34.0697H149.448V27.8472H153.302C155.327 27.8472 156.477 29.5244 156.477 30.9577C156.477 32.3649 155.327 34.0697 153.302 34.0697ZM153.232 25.3204H146.739V43.4738H149.448V36.5964H153.232C156.235 36.5964 159.187 34.4211 159.187 30.9577C159.187 27.4943 156.235 25.3204 153.232 25.3204ZM117.827 41.4147C115.955 41.4147 114.388 39.8478 114.388 37.6957C114.388 35.5204 115.955 33.9288 117.827 33.9288C119.676 33.9288 121.125 35.5204 121.125 37.6957C121.125 39.8478 119.676 41.4147 117.827 41.4147ZM120.939 32.876H120.845C120.236 32.1514 119.067 31.4965 117.593 31.4965C114.504 31.4965 111.674 34.2091 111.674 37.6957C111.674 41.1576 114.504 43.8485 117.593 43.8485C119.067 43.8485 120.236 43.1936 120.845 42.4443H120.939V43.3344C120.939 45.6971 119.676 46.9605 117.64 46.9605C115.978 46.9605 114.949 45.7668 114.528 44.7604L112.165 45.7436C112.843 47.3816 114.645 49.3928 117.64 49.3928C120.821 49.3928 123.512 47.521 123.512 42.9598V31.8697H120.939V32.876ZM125.384 43.4738H128.098V25.319H125.384V43.4738ZM132.097 37.4851C132.028 35.0993 133.946 33.8824 135.325 33.8824C136.403 33.8824 137.315 34.4197 137.618 35.1922L132.097 37.4851ZM140.52 35.426C140.006 34.0464 138.437 31.4965 135.232 31.4965C132.051 31.4965 129.408 33.9985 129.408 37.6725C129.408 41.1344 132.028 43.8485 135.536 43.8485C138.368 43.8485 140.006 42.1175 140.684 41.1112L138.578 39.7069C137.877 40.7365 136.917 41.4147 135.536 41.4147C134.156 41.4147 133.173 40.783 132.542 39.5443L140.8 36.1274L140.52 35.426ZM74.7255 33.3915V36.0112H80.9945C80.8071 37.4851 80.3163 38.5612 79.5684 39.3091C78.655 40.2225 77.2276 41.2288 74.7255 41.2288C70.8642 41.2288 67.8466 38.1168 67.8466 34.257C67.8466 30.3957 70.8642 27.2852 74.7255 27.2852C76.8079 27.2852 78.3283 28.1042 79.4508 29.157L81.2994 27.3084C79.7311 25.8113 77.6501 24.6641 74.7255 24.6641C69.4382 24.6641 64.9932 28.9697 64.9932 34.257C64.9932 39.5443 69.4382 43.8485 74.7255 43.8485C77.579 43.8485 79.7311 42.9119 81.4156 41.1577C83.148 39.4267 83.6853 36.9943 83.6853 35.0281C83.6853 34.4196 83.6388 33.8591 83.5444 33.3915H74.7255ZM90.8139 41.4147C88.9421 41.4147 87.3273 39.871 87.3273 37.6725C87.3273 35.4492 88.9421 33.9288 90.8139 33.9288C92.6843 33.9288 94.2991 35.4492 94.2991 37.6725C94.2991 39.871 92.6843 41.4147 90.8139 41.4147ZM90.8139 31.4965C87.397 31.4965 84.6132 34.0929 84.6132 37.6725C84.6132 41.2288 87.397 43.8485 90.8139 43.8485C94.2294 43.8485 97.0132 41.2288 97.0132 37.6725C97.0132 34.0929 94.2294 31.4965 90.8139 31.4965ZM104.338 41.4147C102.466 41.4147 100.851 39.871 100.851 37.6725C100.851 35.4492 102.466 33.9288 104.338 33.9288C106.21 33.9288 107.823 35.4492 107.823 37.6725C107.823 39.871 106.21 41.4147 104.338 41.4147ZM104.338 31.4965C100.922 31.4965 98.1386 34.0929 98.1386 37.6725C98.1386 41.2288 100.922 43.8485 104.338 43.8485C107.753 43.8485 110.537 41.2288 110.537 37.6725C110.537 34.0929 107.753 31.4965 104.338 31.4965Z" fill="white"/>
</svg>
