<svg width="60" height="60" viewBox="0 0 60 60" fill="none" xmlns="http://www.w3.org/2000/svg">
<rect width="60" height="60" rx="30" fill="#0C0C0F"/>
<path fill-rule="evenodd" clip-rule="evenodd" d="M20.7181 36.1994C20.5792 36.0135 20.52 35.78 20.5533 35.5503C20.5866 35.3206 20.7098 35.1136 20.8957 34.9748L36.0395 23.6861L26.711 22.3226C26.5942 22.3097 26.4812 22.2735 26.3787 22.216C26.2762 22.1585 26.1864 22.0809 26.1145 21.988C26.0427 21.895 25.9903 21.7885 25.9605 21.6749C25.9307 21.5612 25.924 21.4427 25.941 21.3264C25.958 21.2101 25.9982 21.0985 26.0593 20.9981C26.1204 20.8977 26.201 20.8107 26.2965 20.7421C26.3919 20.6736 26.5002 20.625 26.6148 20.5992C26.7295 20.5734 26.8481 20.571 26.9637 20.5921L38.3823 22.2587C38.6117 22.2922 38.8185 22.4153 38.9572 22.6011C39.096 22.7869 39.1553 23.0202 39.1221 23.2497L37.475 34.6711C37.4382 34.8975 37.314 35.1005 37.129 35.2362C36.944 35.372 36.7132 35.4296 36.4861 35.3968C36.259 35.364 36.0539 35.2433 35.915 35.0607C35.7761 34.8781 35.7144 34.6482 35.7433 34.4206L37.0883 25.087L21.9434 36.378C21.8512 36.4468 21.7464 36.4968 21.6349 36.525C21.5234 36.5533 21.4075 36.5593 21.2937 36.5427C21.1799 36.5261 21.0705 36.4873 20.9717 36.4284C20.8729 36.3695 20.7867 36.2917 20.7181 36.1994Z" fill="white"/>
</svg>
